<svg height="453.0" width="961.0" xmlns="http://www.w3.org/2000/svg"><desc>{"leftTopX": 5575, "leftTopY": 6051, "rightBottomX": 6536, "rightBottomY": 6464}</desc><g transform="translate(0.5,0.5)"><g class="reference"><polyline fill="none" points="582.0,98.0 103.0,98.0 103.0,275.0 41.0,275.0" stroke="#000000" stroke-linejoin="miter"/><g class="cardinality"><line stroke="#000000" stroke-width="1.0" x1="103.0" x2="97.0" y1="250.0" y2="265.0"/><line stroke="#000000" stroke-width="1.0" x1="103.0" x2="109.0" y1="250.0" y2="265.0"/><g transform="translate(103.0,250.0)"><circle fill="white" r="3.5" stroke="#000000" stroke-width="1.0"/></g></g><g class="mandatory"><line stroke="#000000" stroke-width="1.0" x1="350.0" x2="350.0" y1="92.0" y2="104.0"/></g></g><g class="reference"><polyline fill="none" points="460.0,331.0 229.0,331.0 229.0,356.0 195.0,356.0" stroke="#000000" stroke-linejoin="miter"/><g class="cardinality"><line stroke="#000000" stroke-width="1.0" x1="248.0" x2="233.0" y1="331.0" y2="325.0"/><line stroke="#000000" stroke-width="1.0" x1="248.0" x2="233.0" y1="331.0" y2="337.0"/><g transform="translate(248.0,331.0)"><circle fill="white" r="3.5" stroke="#000000" stroke-width="1.0"/></g></g><g class="mandatory"><line stroke="#000000" stroke-width="1.0" x1="375.0" x2="375.0" y1="325.0" y2="337.0"/></g></g><g class="reference"><polyline fill="none" points="525.0,134.0 467.0,134.0 467.0,287.0 452.0,287.0" stroke="#000000" stroke-linejoin="miter"/><g class="cardinality"><line stroke="#000000" stroke-width="1.0" x1="467.0" x2="461.0" y1="262.0" y2="277.0"/><line stroke="#000000" stroke-width="1.0" x1="467.0" x2="473.0" y1="262.0" y2="277.0"/><g transform="translate(467.0,262.0)"><circle fill="white" r="3.5" stroke="#000000" stroke-width="1.0"/></g></g><g class="mandatory"><line stroke="#000000" stroke-width="1.0" x1="461.0" x2="473.0" y1="194.0" y2="194.0"/></g></g><g class="reference"><polyline fill="none" points="588.0,85.0 821.0,85.0 821.0,154.0" stroke="#000000" stroke-linejoin="miter"/><g class="cardinality"><line stroke="#000000" stroke-width="1.0" x1="821.0" x2="815.0" y1="129.0" y2="144.0"/><line stroke="#000000" stroke-width="1.0" x1="821.0" x2="827.0" y1="129.0" y2="144.0"/><g transform="translate(821.0,129.0)"><circle fill="white" r="3.5" stroke="#000000" stroke-width="1.0"/></g></g><g class="mandatory"><line stroke="#000000" stroke-width="1.0" x1="613.0" x2="613.0" y1="79.0" y2="91.0"/></g></g><g class="reference"><polyline fill="none" points="595.0,343.0 839.0,343.0 839.0,194.0 822.0,194.0" stroke="#000000" stroke-linejoin="miter"/><g class="cardinality"><line stroke="#000000" stroke-width="1.0" x1="839.0" x2="833.0" y1="219.0" y2="204.0"/><line stroke="#000000" stroke-width="1.0" x1="839.0" x2="845.0" y1="219.0" y2="204.0"/><g transform="translate(839.0,219.0)"><circle fill="white" r="3.5" stroke="#000000" stroke-width="1.0"/></g></g><g class="mandatory"><line stroke="#000000" stroke-width="1.0" x1="620.0" x2="620.0" y1="337.0" y2="349.0"/></g></g><g class="table" transform="translate(365.0,20.0)"><g transform="translate(0.0,0.0)"><rect fill="#f0f0f0" height="20.0" width="233.0"/></g><g transform="translate(0.0,0.0)"><text fill="black" font-family="arial, sans-serif" font-size="12" font-weight="700" text-anchor="middle" x="117.5" y="14.190625">Utente</text></g><g transform="translate(0.0,20.0)"><rect fill="#ffffff" height="139.0" width="233.0"/><g transform="translate(4.0,3.0)"><g transform="translate(0.0,0.0)"><text fill="black" font-family="arial, sans-serif" font-size="12" font-weight="400" x="1.0" y="11.138671875">Username</text></g><g transform="translate(0.0,14.0)"><text fill="black" font-family="arial, sans-serif" font-size="12" font-weight="400" x="1.0" y="11.138671875">Nome</text></g><g transform="translate(0.0,28.0)"><text fill="black" font-family="arial, sans-serif" font-size="12" font-weight="400" x="1.0" y="11.138671875">Cognome</text></g><g transform="translate(0.0,42.0)"><text fill="black" font-family="arial, sans-serif" font-size="12" font-weight="400" x="1.0" y="11.138671875">DataNas</text></g><g transform="translate(0.0,56.0)"><text fill="black" font-family="arial, sans-serif" font-size="12" font-weight="400" x="1.0" y="11.138671875">Contatto</text></g><g transform="translate(0.0,70.0)"><text fill="black" font-family="arial, sans-serif" font-size="12" font-weight="400" x="1.0" y="11.138671875">Password</text></g><g transform="translate(0.0,84.0)"><text fill="black" font-family="arial, sans-serif" font-size="12" font-weight="400" x="1.0" y="11.138671875">ResidenzaLat</text></g><g transform="translate(0.0,98.0)"><text fill="black" font-family="arial, sans-serif" font-size="12" font-weight="400" x="1.0" y="11.138671875">ResidenzaLong</text></g><g transform="translate(0.0,112.0)"><text fill="black" font-family="arial, sans-serif" font-size="12" font-weight="400" x="1.0" y="11.138671875">RaggioAzione</text></g></g><g transform="translate(123.75,3.0)"><g transform="translate(0.0,0.0)"><text fill="black" font-family="arial, sans-serif" font-size="12" font-weight="400" x="1.0" y="11.138671875">varchar2(20)</text></g><g transform="translate(0.0,14.0)"><text fill="black" font-family="arial, sans-serif" font-size="12" font-weight="400" x="1.0" y="11.138671875">varchar2(50)</text></g><g transform="translate(0.0,28.0)"><text fill="black" font-family="arial, sans-serif" font-size="12" font-weight="400" x="1.0" y="11.138671875">varchar2(50)</text></g><g transform="translate(0.0,42.0)"><text fill="black" font-family="arial, sans-serif" font-size="12" font-weight="400" x="1.0" y="11.138671875">date</text></g><g transform="translate(0.0,56.0)"><text fill="black" font-family="arial, sans-serif" font-size="12" font-weight="400" x="1.0" y="11.138671875">varchar2(256)</text></g><g transform="translate(0.0,70.0)"><text fill="black" font-family="arial, sans-serif" font-size="12" font-weight="400" x="1.0" y="11.138671875">char(256)</text></g><g transform="translate(0.0,84.0)"><text fill="black" font-family="arial, sans-serif" font-size="12" font-weight="400" x="1.0" y="11.138671875">integer</text></g><g transform="translate(0.0,98.0)"><text fill="black" font-family="arial, sans-serif" font-size="12" font-weight="400" x="1.0" y="11.138671875">integer</text></g><g transform="translate(0.0,112.0)"><text fill="black" font-family="arial, sans-serif" font-size="12" font-weight="400" x="1.0" y="11.138671875">integer</text></g></g><g transform="translate(213.75,3.0)"><g transform="translate(0.0,0.0)"><text fill="black" font-family="arial, sans-serif" font-size="12" font-weight="400" x="1.0" y="11.138671875">PK</text></g><g transform="translate(0.0,14.0)"><text fill="black" font-family="arial, sans-serif" font-size="12" font-weight="400" x="1.0" y="11.138671875"/></g><g transform="translate(0.0,28.0)"><text fill="black" font-family="arial, sans-serif" font-size="12" font-weight="400" x="1.0" y="11.138671875"/></g><g transform="translate(0.0,42.0)"><text fill="black" font-family="arial, sans-serif" font-size="12" font-weight="400" x="1.0" y="11.138671875"/></g><g transform="translate(0.0,56.0)"><text fill="black" font-family="arial, sans-serif" font-size="12" font-weight="400" x="1.0" y="11.138671875">N</text></g><g transform="translate(0.0,70.0)"><text fill="black" font-family="arial, sans-serif" font-size="12" font-weight="400" x="1.0" y="11.138671875"/></g><g transform="translate(0.0,84.0)"><text fill="black" font-family="arial, sans-serif" font-size="12" font-weight="400" x="1.0" y="11.138671875"/></g><g transform="translate(0.0,98.0)"><text fill="black" font-family="arial, sans-serif" font-size="12" font-weight="400" x="1.0" y="11.138671875"/></g><g transform="translate(0.0,112.0)"><text fill="black" font-family="arial, sans-serif" font-size="12" font-weight="400" x="1.0" y="11.138671875"/></g></g></g><polyline fill="none" points="0.0,20.0 0.0,0.0 233.0,0.0 233.0,20.0 0.0,20.0 0.0,159.0 233.0,159.0 233.0,20.0" stroke="#000000" stroke-linejoin="miter"/></g><g class="table" transform="translate(390.0,277.0)"><g transform="translate(0.0,0.0)"><rect fill="#f0f0f0" height="20.0" width="215.0"/></g><g transform="translate(0.0,0.0)"><text fill="black" font-family="arial, sans-serif" font-size="12" font-weight="700" text-anchor="middle" x="108.5" y="14.190625">Libro</text></g><g transform="translate(0.0,20.0)"><rect fill="#ffffff" height="96.0" width="215.0"/><g transform="translate(4.0,3.0)"><g transform="translate(0.0,0.0)"><text fill="black" font-family="arial, sans-serif" font-size="12" font-weight="400" x="1.0" y="11.138671875">BCID</text></g><g transform="translate(0.0,14.0)"><text fill="black" font-family="arial, sans-serif" font-size="12" font-weight="400" x="1.0" y="11.138671875">Titolo</text></g><g transform="translate(0.0,28.0)"><text fill="black" font-family="arial, sans-serif" font-size="12" font-weight="400" x="1.0" y="11.138671875">Autore</text></g><g transform="translate(0.0,42.0)"><text fill="black" font-family="arial, sans-serif" font-size="12" font-weight="400" x="1.0" y="11.138671875">DataPubblicazio</text></g><g transform="translate(0.0,56.0)"><text fill="black" font-family="arial, sans-serif" font-size="12" font-weight="400" x="1.0" y="11.138671875">ISBN</text></g><g transform="translate(0.0,70.0)"><text fill="black" font-family="arial, sans-serif" font-size="12" font-weight="400" x="1.0" y="11.138671875">Propietario</text></g></g><g transform="translate(105.75,3.0)"><g transform="translate(0.0,0.0)"><text fill="black" font-family="arial, sans-serif" font-size="12" font-weight="400" x="1.0" y="11.138671875">varchar2(15)</text></g><g transform="translate(0.0,14.0)"><text fill="black" font-family="arial, sans-serif" font-size="12" font-weight="400" x="1.0" y="11.138671875">varchar2(256)</text></g><g transform="translate(0.0,28.0)"><text fill="black" font-family="arial, sans-serif" font-size="12" font-weight="400" x="1.0" y="11.138671875">varchar2(256)</text></g><g transform="translate(0.0,42.0)"><text fill="black" font-family="arial, sans-serif" font-size="12" font-weight="400" x="1.0" y="11.138671875">date</text></g><g transform="translate(0.0,56.0)"><text fill="black" font-family="arial, sans-serif" font-size="12" font-weight="400" x="1.0" y="11.138671875">varchar2(13)</text></g><g transform="translate(0.0,70.0)"><text fill="black" font-family="arial, sans-serif" font-size="12" font-weight="400" x="1.0" y="11.138671875">varchar2(20)</text></g></g><g transform="translate(195.75,3.0)"><g transform="translate(0.0,0.0)"><text fill="black" font-family="arial, sans-serif" font-size="12" font-weight="400" x="1.0" y="11.138671875">PK</text></g><g transform="translate(0.0,14.0)"><text fill="black" font-family="arial, sans-serif" font-size="12" font-weight="400" x="1.0" y="11.138671875"/></g><g transform="translate(0.0,28.0)"><text fill="black" font-family="arial, sans-serif" font-size="12" font-weight="400" x="1.0" y="11.138671875"/></g><g transform="translate(0.0,42.0)"><text fill="black" font-family="arial, sans-serif" font-size="12" font-weight="400" x="1.0" y="11.138671875">N</text></g><g transform="translate(0.0,56.0)"><text fill="black" font-family="arial, sans-serif" font-size="12" font-weight="400" x="1.0" y="11.138671875"/></g><g transform="translate(0.0,70.0)"><text fill="black" font-family="arial, sans-serif" font-size="12" font-weight="400" x="1.0" y="11.138671875">FK</text></g></g></g><polyline fill="none" points="0.0,20.0 0.0,0.0 215.0,0.0 215.0,20.0 0.0,20.0 0.0,116.0 215.0,116.0 215.0,20.0" stroke="#000000" stroke-linejoin="miter"/></g><g class="table" transform="translate(20.0,265.0)"><g transform="translate(0.0,0.0)"><rect fill="#f0f0f0" height="20.0" width="213.0"/></g><g transform="translate(0.0,0.0)"><text fill="black" font-family="arial, sans-serif" font-size="12" font-weight="700" text-anchor="middle" x="107.5" y="14.190625">Possesso</text></g><g transform="translate(0.0,20.0)"><rect fill="#ffffff" height="84.0" width="213.0"/><g transform="translate(4.0,3.0)"><g transform="translate(0.0,0.0)"><text fill="black" font-family="arial, sans-serif" font-size="12" font-weight="400" x="1.0" y="11.138671875">Utente</text></g><g transform="translate(0.0,14.0)"><text fill="black" font-family="arial, sans-serif" font-size="12" font-weight="400" x="1.0" y="11.138671875">Libro</text></g><g transform="translate(0.0,28.0)"><text fill="black" font-family="arial, sans-serif" font-size="12" font-weight="400" x="1.0" y="11.138671875">DataInizio</text></g><g transform="translate(0.0,42.0)"><text fill="black" font-family="arial, sans-serif" font-size="12" font-weight="400" x="1.0" y="11.138671875">DataFine</text></g><g transform="translate(0.0,56.0)"><text fill="black" font-family="arial, sans-serif" font-size="12" font-weight="400" x="1.0" y="11.138671875">LuogoRilasci</text></g></g><g transform="translate(85.25,3.0)"><g transform="translate(0.0,0.0)"><text fill="black" font-family="arial, sans-serif" font-size="12" font-weight="400" x="1.0" y="11.138671875">varchar2(20)</text></g><g transform="translate(0.0,14.0)"><text fill="black" font-family="arial, sans-serif" font-size="12" font-weight="400" x="1.0" y="11.138671875">varchar2(15)</text></g><g transform="translate(0.0,28.0)"><text fill="black" font-family="arial, sans-serif" font-size="12" font-weight="400" x="1.0" y="11.138671875">date</text></g><g transform="translate(0.0,42.0)"><text fill="black" font-family="arial, sans-serif" font-size="12" font-weight="400" x="1.0" y="11.138671875">date</text></g><g transform="translate(0.0,56.0)"><text fill="black" font-family="arial, sans-serif" font-size="12" font-weight="400" x="1.0" y="11.138671875">varchar2(512)</text></g></g><g transform="translate(175.25,3.0)"><g transform="translate(0.0,0.0)"><text fill="black" font-family="arial, sans-serif" font-size="12" font-weight="400" x="1.0" y="11.138671875">PK FK</text></g><g transform="translate(0.0,14.0)"><text fill="black" font-family="arial, sans-serif" font-size="12" font-weight="400" x="1.0" y="11.138671875">PK FK</text></g><g transform="translate(0.0,28.0)"><text fill="black" font-family="arial, sans-serif" font-size="12" font-weight="400" x="1.0" y="11.138671875">PK</text></g><g transform="translate(0.0,42.0)"><text fill="black" font-family="arial, sans-serif" font-size="12" font-weight="400" x="1.0" y="11.138671875"/></g><g transform="translate(0.0,56.0)"><text fill="black" font-family="arial, sans-serif" font-size="12" font-weight="400" x="1.0" y="11.138671875"/></g></g></g><polyline fill="none" points="0.0,20.0 0.0,0.0 213.0,0.0 213.0,20.0 0.0,20.0 0.0,104.0 213.0,104.0 213.0,20.0" stroke="#000000" stroke-linejoin="miter"/></g><g class="table" transform="translate(736.0,144.0)"><g transform="translate(0.0,0.0)"><rect fill="#f0f0f0" height="20.0" width="205.0"/></g><g transform="translate(0.0,0.0)"><text fill="black" font-family="arial, sans-serif" font-size="12" font-weight="700" text-anchor="middle" x="103.5" y="14.190625">Prenotazione</text></g><g transform="translate(0.0,20.0)"><rect fill="#ffffff" height="40.0" width="205.0"/><g transform="translate(4.0,3.0)"><g transform="translate(0.0,0.0)"><text fill="black" font-family="arial, sans-serif" font-size="12" font-weight="400" x="1.0" y="11.138671875">Utente</text></g><g transform="translate(0.0,14.0)"><text fill="black" font-family="arial, sans-serif" font-size="12" font-weight="400" x="1.0" y="11.138671875">Libro</text></g></g><g transform="translate(85.0,3.0)"><g transform="translate(0.0,0.0)"><text fill="black" font-family="arial, sans-serif" font-size="12" font-weight="400" x="1.0" y="11.138671875">varchar2(20)</text></g><g transform="translate(0.0,14.0)"><text fill="black" font-family="arial, sans-serif" font-size="12" font-weight="400" x="1.0" y="11.138671875">varchar2(15)</text></g></g><g transform="translate(167.25,3.0)"><g transform="translate(0.0,0.0)"><text fill="black" font-family="arial, sans-serif" font-size="12" font-weight="400" x="1.0" y="11.138671875">PK FK</text></g><g transform="translate(0.0,14.0)"><text fill="black" font-family="arial, sans-serif" font-size="12" font-weight="400" x="1.0" y="11.138671875">PK FK</text></g></g></g><polyline fill="none" points="0.0,20.0 0.0,0.0 205.0,0.0 205.0,20.0 0.0,20.0 0.0,60.0 205.0,60.0 205.0,20.0" stroke="#000000" stroke-linejoin="miter"/></g><g transform="translate(785.0,403.0)"><svg height="40" width="166"><svg xmlns:xlink="http://www.w3.org/1999/xlink" enable-background="new 0 0 487.7 116.5" id="Layer_1" version="1.0" viewBox="0 0 487.7 116.5" x="0px" xml:space="preserve" y="0px">
</svg></svg></g></g></svg>