<svg xmlns="http://www.w3.org/2000/svg" viewBox="0 0 2255 804" width="2255" xmlns:ev="http://www.w3.org/2001/xml-events" xmlns:xlink="http://www.w3.org/1999/xlink" height="804"><style type="text/css"><![CDATA[
.st1 {fill:#303030;font-family:Arial;font-size:10pt}
]]></style><defs><linearGradient y2="100%" x1="0%" y1="0%" x2="0%" id="lg1"><stop offset="0" stop-color="#fbfbfb"/><stop offset="1" stop-color="#efefef"/></linearGradient></defs><g transform="translate(5,5)" id="page1"><rect stroke="#808080" y="0" width="2245" x="0" height="794" fill="#ffffff"/><g transform="translate(518,113)"><path stroke="#000000" d="M1039.7,435C1045.9,435,1051,429.9,1051,423.7L1051,11.3C1051,5.1,1045.9,0,1039.7,0L11.3,0C5.1,0,0,5.1,0,11.3L0,423.7C0,429.9,5.1,435,11.3,435L1039.7,435z" transform="translate(-0,0)" id="shape1" fill="none"/><g transform="translate(-24,-16)"><path stroke="#a35620" d="M39.7,12.4C39.4,9.8,36.5,3.9,29.6,7.3C23.9,-4.4,7.1,-1.8,6,12.9C-3.5,16.2,-1,30.3,8.4,30.3C17.8,30.3,34.5,30.3,38.8,30.3C47.3,30.3,54,17.7,39.7,12.4z" transform="translate(0,1.68)" id="shape2" stroke-width="0.25" fill="#a35620"/><path stroke="#f58535" d="M39.7,12.4C39.4,9.8,36.5,3.9,29.6,7.3C23.9,-4.4,7.1,-1.8,6,12.9C-3.5,16.2,-1,30.3,8.4,30.3C17.8,30.3,34.5,30.3,38.8,30.3C47.3,30.3,54,17.7,39.7,12.4z" transform="translate(0,-0)" id="shape3" stroke-width="0.25" fill="#f58535"/><path stroke="#ffffff" d="M0,11.3L3.5,.2L4.8,.2L8.6,11.3L7.2,11.3L6.1,7.9L2.3,7.9L1.3,11.3L0,11.3zM2.6,6.7L5.7,6.7L4.8,3.6C4.5,2.7,4.3,1.9,4.1,1.3C4,2,3.9,2.8,3.6,3.5L2.6,6.7zM12.4,11.3L14.3,2.8C14.4,2.5,14.5,2,14.6,1.5C14.6,1.7,14.7,2.1,14.9,2.8L16.8,11.3L18,11.3L20.5,.2L19.3,.2L17.8,7.3C17.6,8.2,17.5,9,17.4,9.7C17.2,8.5,17,7.2,16.7,5.8L15.3,.2L13.9,.2L12.1,7.7C12.1,7.9,12,8.6,11.7,9.7C11.6,9,11.5,8.2,11.3,7.5L9.9,.2L8.7,.2L11.1,11.3L12.4,11.3zM21.2,7.7C21.2,8.5,21.4,9.1,21.7,9.7C22,10.3,22.5,10.8,23,11.1C23.6,11.3,24.3,11.5,25.1,11.5C25.8,11.5,26.3,11.3,26.9,11.1C27.4,10.8,27.8,10.4,28.1,9.8C28.4,9.3,28.5,8.7,28.5,8.2C28.5,7.6,28.4,7,28.1,6.6C27.9,6.1,27.5,5.7,26.9,5.4C26.6,5.2,25.9,5,24.9,4.7C23.9,4.5,23.3,4.2,23.1,3.9C22.8,3.7,22.7,3.3,22.7,2.9C22.7,2.5,22.9,2.1,23.2,1.8C23.6,1.4,24.1,1.3,24.8,1.3C25.5,1.3,26.1,1.4,26.4,1.8C26.8,2.2,27,2.7,27.1,3.4L28.2,3.3C28.2,2.6,28,2.1,27.8,1.5C27.5,1,27.1,.6,26.6,.4C26.1,.1,25.5,-0,24.8,-0C24.2,-0,23.6,.1,23.1,.3C22.6,.6,22.2,1,21.9,1.5C21.7,2,21.6,2.5,21.6,3C21.6,3.6,21.7,4,21.9,4.4C22.1,4.8,22.4,5.2,22.8,5.5C23.2,5.7,23.8,5.9,24.6,6.2C25.5,6.4,26,6.6,26.2,6.7C26.6,6.9,26.9,7.1,27.1,7.4C27.2,7.6,27.3,7.9,27.3,8.3C27.3,8.6,27.2,8.9,27.1,9.2C26.9,9.5,26.6,9.8,26.3,9.9C25.9,10.1,25.5,10.2,25,10.2C24.5,10.2,24.1,10.1,23.6,9.8C23.2,9.6,22.9,9.3,22.7,9C22.5,8.6,22.4,8.2,22.3,7.6L21.2,7.7z" transform="translate(8.49,14.64)" id="shape4" stroke-width="0.25" fill="#ffffff"/></g></g><g transform="translate(495,313)"><path stroke="#a35620" d="M0,23C0,10.3,10.3,0,23,0C35.6,0,45.9,10.3,45.9,23C45.9,35.7,35.6,45.9,23,45.9C10.3,45.9,0,35.7,0,23z" transform="translate(0.04,2.05)" id="shape5" fill="#a35620"/><path stroke="#f58536" d="M0,23C0,10.3,10.3,0,23,0C35.6,0,45.9,10.3,45.9,23C45.9,35.7,35.6,45.9,23,45.9C10.3,45.9,0,35.7,0,23z" transform="translate(0.04,0)" id="shape6" fill="#f58536"/><path stroke="#ffffff" d="M4.6,9.9C4.8,1.4,16.4,-4.9,23.7,5.1C26.4,4.2,30.5,4.7,31.6,9.4C38.2,11.3,38.4,16.7,37.8,19C37.3,21.4,34.3,24.4,30.1,24.4C25.9,24.4,11.4,24.4,8.7,24.4C6,24.4,1.2,23,.2,19C-0.7,15,1.4,11.2,4.6,9.9z" transform="translate(4.07,7.98)" id="shape7" fill="#ffffff"/><path stroke="#f58536" d="M4.7,9.1C3.4,2,14.4,-5.7,20.2,6.1C23.8,2.6,27.4,6.5,26.5,9.1C29.4,9.1,33,11,33,14.6C33,18.3,28.2,19.1,27.6,19.1C27,19.1,6.8,19.1,5.7,19.1C4.7,19.1,0,18.4,0,14.6C0,10.9,3.4,8.9,4.7,9.1z" transform="translate(6.5,10.64)" id="shape8" fill="#f58536"/><text class="st1"><tspan y="56" x="-0.5">Internet </tspan><tspan y="72" x="-2.5">Gateway</tspan></text></g><g transform="translate(598.69,159)"><path stroke="#000000" d="M576.7,306C582.9,306,588,300.9,588,294.7L588,11.3C588,5.1,582.9,0,576.7,0L11.3,0C5.1,0,0,5.1,0,11.3L0,294.7C0,300.9,5.1,306,11.3,306L576.7,306z" transform="translate(19.31,27)" id="shape9" fill="none"/><g transform="translate(4,-9)"><g transform="translate(0,13.43)"><path stroke="#bc6527" d="M0,43.4L3.1,45.2L3.1,0L0,1.6L0,43.4z" transform="translate(0,0)" id="shape10" stroke-width="0.25" fill="#bc6527"/><path stroke="#f58536" d="M0,0L4.2,1.1L4.2,44.3L0,45.2L0,0z" transform="translate(3.14,0)" id="shape11" stroke-width="0.25" fill="#f58536"/></g><g transform="translate(6.71,9.86)"><path stroke="#bc6527" d="M0,50.3L3.8,52.4L3.8,0L0,1.9L0,50.3z" id="shape12" stroke-width="0.25" fill="#bc6527"/><path stroke="#f58536" d="M0,0L4.8,1.5L4.8,50.9L0,52.4L0,0z" transform="translate(3.78,0)" id="shape13" stroke-width="0.25" fill="#f58536"/></g><g transform="translate(14.33,5.57)"><path stroke="#bc6527" d="M0,58.5L4.7,61L4.7,0L0,2.2L0,58.5z" transform="translate(-0,0)" id="shape14" stroke-width="0.25" fill="#bc6527"/><path stroke="#f58536" d="M0,0L6.8,2.3L6.8,58.4L0,61L0,0z" transform="translate(4.75,0)" id="shape15" stroke-width="0.25" fill="#f58536"/></g><g transform="translate(24.4,0)"><path stroke="#bc6527" d="M0,69.2L6,72.1L6,0L0,3L0,69.2z" id="shape16" stroke-width="0.25" fill="#bc6527"/><path stroke="#f58536" d="M0,0L30.6,15L30.6,57.2L0,72.1L0,0z" transform="translate(6.01,0)" id="shape17" stroke-width="0.25" fill="#f58536"/></g><text class="st1"><tspan y="88.1" x="18">EC2</tspan></text></g></g><g transform="translate(706,214)"><path stroke="#6d6d6d" d="M0,0L185,0L185,56L0,56L0,0z" id="shape18" fill="url(#lg1)"/><path stroke="#6d6d6d" d="M0,0L56,0L56,14L0,14L0,0z" transform="translate(-28,7)" id="shape19" fill="url(#lg1)"/><path stroke="#6d6d6d" d="M0,0L56,0L56,14L0,14L0,0z" transform="translate(-28,35)" id="shape20" fill="url(#lg1)"/><text class="st1"><tspan y="24" x="59">&lt;&lt;subsystem>></tspan><tspan y="40" x="56">Request Manager</tspan></text></g><g transform="translate(706,305)"><path stroke="#6d6d6d" d="M0,0L185,0L185,56L0,56L0,0z" id="shape21" fill="url(#lg1)"/><path stroke="#6d6d6d" d="M0,0L56,0L56,14L0,14L0,0z" transform="translate(-28,7)" id="shape22" fill="url(#lg1)"/><path stroke="#6d6d6d" d="M0,0L56,0L56,14L0,14L0,0z" transform="translate(-28,35)" id="shape23" fill="url(#lg1)"/><text class="st1"><tspan y="32" x="89">Profile</tspan></text></g><g transform="translate(706,396)"><path stroke="#6d6d6d" d="M0,0L185,0L185,56L0,56L0,0z" id="shape24" fill="url(#lg1)"/><path stroke="#6d6d6d" d="M0,0L56,0L56,14L0,14L0,0z" transform="translate(-28,7)" id="shape25" fill="url(#lg1)"/><path stroke="#6d6d6d" d="M0,0L56,0L56,14L0,14L0,0z" transform="translate(-28,35)" id="shape26" fill="url(#lg1)"/><text class="st1"><tspan y="32" x="92">Book</tspan></text></g><g transform="translate(979,214)"><path stroke="#6d6d6d" d="M0,0L185,0L185,56L0,56L0,0z" id="shape27" fill="url(#lg1)"/><path stroke="#6d6d6d" d="M0,0L56,0L56,14L0,14L0,0z" transform="translate(-28,7)" id="shape28" fill="url(#lg1)"/><path stroke="#6d6d6d" d="M0,0L56,0L56,14L0,14L0,0z" transform="translate(-28,35)" id="shape29" fill="url(#lg1)"/><text class="st1"><tspan y="24" x="59">&lt;&lt;subsystem>></tspan><tspan y="40" x="58">Access Manager</tspan></text></g><g transform="translate(979,305)"><path stroke="#6d6d6d" d="M0,0L185,0L185,56L0,56L0,0z" id="shape30" fill="url(#lg1)"/><path stroke="#6d6d6d" d="M0,0L56,0L56,14L0,14L0,0z" transform="translate(-28,7)" id="shape31" fill="url(#lg1)"/><path stroke="#6d6d6d" d="M0,0L56,0L56,14L0,14L0,0z" transform="translate(-28,35)" id="shape32" fill="url(#lg1)"/><text class="st1"><tspan y="32" x="66">Data Manager</tspan></text></g><g transform="translate(979,396)"><path stroke="#6d6d6d" d="M0,0L185,0L185,56L0,56L0,0z" id="shape33" fill="url(#lg1)"/><path stroke="#6d6d6d" d="M0,0L56,0L56,14L0,14L0,0z" transform="translate(-28,7)" id="shape34" fill="url(#lg1)"/><path stroke="#6d6d6d" d="M0,0L56,0L56,14L0,14L0,0z" transform="translate(-28,35)" id="shape35" fill="url(#lg1)"/><text class="st1"><tspan y="32" x="82">Analysis</tspan></text></g><g transform="translate(1305,160)"><path stroke="#000000" d="M200.1,306C206.4,306,211.5,300.9,211.5,294.7L211.5,11.3C211.5,5.1,206.4,0,200.1,0L11.3,0C5.1,0,0,5.1,0,11.3L0,294.7C0,300.9,5.1,306,11.3,306L200.1,306z" transform="translate(6.52,26)" id="shape36" fill="none"/><g><path stroke="#2e73b7" d="M0,0L14.7,0L14.7,50L0,50C0,50,0,0,0,0z" transform="translate(14.67,0)" id="shape37" stroke-width="0.25" fill="#2e73b7"/><path stroke="#2e73b7" d="M5,0L0,6L0,34L5,40L5,0z" transform="matrix(-1,0,0,1,44,5)" id="shape38" stroke-width="0.25" fill="#2e73b7"/><path stroke="#5294cf" d="M0,5L9.7,0L9.7,50L0,45L0,5z" transform="matrix(-1,0,0,1,39,0)" id="shape39" stroke-width="0.25" fill="#5294cf"/><path stroke="#1b4a78" d="M5,0L0,6L0,34L5,40L5,0z" transform="translate(-0,5)" id="shape40" stroke-width="0.25" fill="#1b4a78"/><path stroke="#245e97" d="M0,5L9.7,0L9.7,50L0,45L0,5z" transform="translate(4.99,0)" id="shape41" stroke-width="0.25" fill="#245e97"/><text class="st1"><tspan y="66" x="8.5">RDS</tspan></text></g></g><g transform="translate(1352.5,294.68)"><g transform="translate(43.45,37.37)"><path stroke="#1b4977" d="M0,1.8C0,1.8,0,0,0,0L29.5,.1C29.5,.1,29.5,1.8,29.5,1.8C29.5,3.2,22.9,5.1,14.8,5.1C6.6,5.1,0,3.2,0,1.8z" transform="translate(0,3.52)" id="shape42" stroke-width="0.25" fill="#1b4a78"/><path stroke="#1b4977" d="M0,.4L0,2.9C0,2.9,4.2,6.6,14.8,6.6C25.4,6.6,29.5,2.9,29.5,2.9L29.5,0L0,.4z" transform="translate(0,32.67)" id="shape43" stroke-width="0.25" fill="#1b4a78"/><path stroke="#2e73b7" d="M0,3.5C0,1.6,6.6,-0,14.8,-0C22.9,-0,29.5,1.6,29.5,3.5C29.5,5.4,22.9,7,14.8,7C6.6,7,0,5.4,0,3.5z" transform="translate(0,0.01)" id="shape44" stroke-width="0.25" fill="#2e73b7"/><path stroke="#2e73b7" d="M0,0L0,26.5C0,26.5,4.2,30.2,14.8,30.2C25.4,30.2,29.5,26.5,29.5,26.5L29.5,0C29.5,0,25.1,3,14.8,3C4.4,3,0,0,0,0z" transform="translate(0,7.23)" id="shape45" stroke-width="0.25" fill="#2e73b7"/><path stroke="#ffffff" d="M-0,18.8L-0,0L3.8,0L8.4,13.3C8.8,14.6,9.1,15.5,9.3,16.1C9.6,15.4,9.9,14.4,10.4,13.1L15,0L18.5,0L18.5,18.8L16,18.8L16,3.1L10.4,18.8L8,18.8L2.4,2.8L2.4,18.8L-0,18.8z" transform="translate(5.54,12.93)" id="shape46" stroke-width="0.25" fill="#ffffff"/></g><path stroke="#1b4a78" d="M73,13.2L73,16C73,16,54.8,10.4,39.6,17.6C39.6,17.6,39.6,50.1,39.6,50.1L41.2,51.2L41.2,55L7.2,55C3.2,55,0,51.9,0,48.1L0,43.7L53.9,0L73,13.2z" transform="translate(0,19.97)" id="shape47" stroke-width="0.25" fill="#1b4a78"/><path stroke="#2e73b7" d="M7.2,0L65.8,0C69.8,0,73,3.1,73,6.9L73,33.2C73,33.2,54.5,27.3,39.6,34.4C39.6,34.4,39.6,70.1,39.6,70.1L41.2,71.2L7.2,71.2C3.2,71.2,0,68.1,0,64.3L0,6.9C0,3.1,3.2,0,7.2,0z" transform="translate(0,-0)" id="shape48" stroke-width="0.25" fill="#2e73b7"/><text class="st1"><tspan y="92.6" x="17.5">Oracle</tspan></text></g><g transform="translate(1164,333)" id="shape49"><path stroke="#7e7e7e" d="M8.8,0L179.7,0" stroke-width="4" fill="none"/><path stroke="#7e7e7e" d="M0,0L10.4,6C9.4,4.2,8.8,2.2,8.8,0C8.8,-2.2,9.4,-4.2,10.4,-6L0,0" stroke-linecap="round" stroke-width="1" fill="#7e7e7e"/><path stroke="#7e7e7e" d="M188.5,0L178.1,-6C179.1,-4.2,179.7,-2.2,179.7,0C179.7,2.2,179.1,4.2,178.1,6L188.5,0" stroke-linecap="round" stroke-width="1" fill="#7e7e7e"/></g><g transform="translate(541,337)" id="shape50"><path stroke="#7e7e7e" d="M8.8,0L105,0L105,-95L156.2,-95" stroke-width="4" fill="none"/><path stroke="#7e7e7e" d="M0,0L10.4,6C9.4,4.2,8.8,2.2,8.8,0C8.8,-2.2,9.4,-4.2,10.4,-6L0,0" stroke-linecap="round" stroke-width="1" fill="#7e7e7e"/><path stroke="#7e7e7e" d="M165,-95L154.6,-101C155.6,-99.2,156.2,-97.2,156.2,-95C156.2,-92.8,155.6,-90.8,154.6,-89L165,-95" stroke-linecap="round" stroke-width="1" fill="#7e7e7e"/></g><g transform="translate(48.15,76)"><path stroke="#000000" d="M318.4,321C324.6,321,329.7,315.9,329.7,309.7L329.7,11.3C329.7,5.1,324.6,0,318.4,0L11.3,0C5.1,0,0,5.1,0,11.3L0,309.7C0,315.9,5.1,321,11.3,321L318.4,321z" transform="translate(28,151)" id="shape51" fill="none"/><path d="M40.1,0C40.3,.3,40.3,.5,40.2,.7L37.1,5.3C42.2,7.6,46.3,12.2,46.5,18.3L10.7,18.3C10.6,13.1,14.3,8,20,5.4L16.7,.7C16.4,.2,17,-0.3,17.5,.2L20.8,5C25.5,3.1,31.5,3.1,36.1,5L39.5,.2C39.6,0,39.7,0,40.1,0zM18.7,11.3C18.7,12.3,19.5,13.2,20.4,13.3C21.5,13.5,22.8,12.8,22.8,11.3C22.8,9.8,21.6,9.1,20.6,9.2C19.6,9.3,18.7,10.1,18.7,11.3zM34.4,11.3C34.4,12.3,35.1,13.2,36.1,13.3C37.2,13.5,38.5,12.8,38.5,11.3C38.5,9.9,37.4,9.2,36.4,9.2C35.4,9.2,34.4,10,34.4,11.3zM39.8,53.4L39.8,62.7C39.8,65.4,37.8,66.7,35.9,66.7C33.9,66.7,32.1,65.1,32,62.7L32,53.4L25.1,53.4L25.1,62.7C25.1,63.5,24.9,64.4,24.4,65.1C23.2,66.7,21.2,67,19.7,66.4C18.3,65.8,17.3,64.4,17.3,62.7L17.3,53.4L13.4,53.4C11.9,53.4,10.7,52.2,10.7,50.8L10.7,20.8L46.4,20.8L46.4,50.8C46.4,52.1,45.3,53.4,43.8,53.4L39.8,53.4zM3.9,20.7C6.4,20.7,8.1,22.5,8.1,24.7L8.1,41.5C8.1,43.7,6.4,45.4,4.2,45.4C1.8,45.4,0,43.7,0,41.5L0,24.7C0,22.5,1.8,20.7,3.9,20.7zM52.8,20.8C55.2,20.8,57,22.5,57,24.7L57,41.5C57,43.7,55.2,45.5,53.1,45.5C50.6,45.5,48.9,43.7,48.9,41.5L48.9,24.7C48.9,22.5,50.6,20.8,52.8,20.8z" transform="translate(-0.15,117.33)" id="shape52" fill="#7bc74b"/></g><g transform="translate(153.5,305)"><path stroke="#6d6d6d" d="M0,0L185,0L185,56L0,56L0,0z" id="shape53" fill="url(#lg1)"/><path stroke="#6d6d6d" d="M0,0L56,0L56,14L0,14L0,0z" transform="translate(-28,7)" id="shape54" fill="url(#lg1)"/><path stroke="#6d6d6d" d="M0,0L56,0L56,14L0,14L0,0z" transform="translate(-28,35)" id="shape55" fill="url(#lg1)"/><text class="st1"><tspan y="24" x="59">&lt;&lt;subsystem>></tspan><tspan y="40" x="56">Request Manager</tspan></text></g><g transform="translate(153.5,396)"><path stroke="#6d6d6d" d="M0,0L185,0L185,56L0,56L0,0z" id="shape56" fill="url(#lg1)"/><path stroke="#6d6d6d" d="M0,0L56,0L56,14L0,14L0,0z" transform="translate(-28,7)" id="shape57" fill="url(#lg1)"/><path stroke="#6d6d6d" d="M0,0L56,0L56,14L0,14L0,0z" transform="translate(-28,35)" id="shape58" fill="url(#lg1)"/><text class="st1"><tspan y="24" x="59">&lt;&lt;subsystem>></tspan><tspan y="40" x="96">GUI</tspan></text></g><g transform="translate(340,337)" id="shape59"><path stroke="#7e7e7e" d="M8.8,0L146.2,0" stroke-width="4" fill="none"/><path stroke="#7e7e7e" d="M0,0L10.4,6C9.4,4.2,8.8,2.2,8.8,0C8.8,-2.2,9.4,-4.2,10.4,-6L0,0" stroke-linecap="round" stroke-width="1" fill="#7e7e7e"/><path stroke="#7e7e7e" d="M155,0L144.6,-6C145.6,-4.2,146.2,-2.2,146.2,0C146.2,2.2,145.6,4.2,144.6,6L155,0" stroke-linecap="round" stroke-width="1" fill="#7e7e7e"/></g></g></svg>