<svg width="2255" xmlns:xlink="http://www.w3.org/1999/xlink" height="3185" xmlns="http://www.w3.org/2000/svg" xmlns:ev="http://www.w3.org/2001/xml-events" viewBox="0 0 2255 3185"><style type="text/css"><![CDATA[
.st4 {fill:#000000;font-family:Tempus Sans ITC;font-size:12pt}
.st5 {fill:#000000;font-family:Tempus Sans ITC;font-size:16pt}
.st1 {fill:#000000;font-family:Times New Roman;font-size:12pt}
.st3 {fill:#000000;font-family:Times New Roman;font-size:16pt}
.st2 {font-size:16pt}
]]></style><defs/><g id="page1" transform="translate(5,5)"><rect y="0" width="2245" fill="#ffffff" height="3175" x="0" stroke="#808080"/><g id="shape1" transform="translate(25.48,2721.1)"><path fill="#ffffff" d="M0,0L0,393L819,393L819,82.7L310.5,82.7L310.5,0L0,0z"/><path fill="none" d="M0,0L0,393L819,393L819,82.7L310.5,82.7L310.5,0L0,0zM310.5,82.7L0,82.7" stroke="#000000"/><text class="st1"><tspan y="31.9" x="115.2">«Subsystem» </tspan><tspan y="54.9" class="st2" x="98.2">Data Manager</tspan></text></g><g transform="translate(178,3073.1)"><path id="shape2" fill="#ffffff" stroke-width="2" d="M0,0L639,0L639,35L0,35L0,0z" stroke="#000000"/><path id="shape3" fill="#ffffff" stroke-width="2" d="M0,0L35,0L35,8.8L0,8.8L0,0z" stroke="#000000" transform="translate(-17.5,4.38)"/><path id="shape4" fill="#ffffff" stroke-width="2" d="M0,0L35,0L35,8.8L0,8.8L0,0z" stroke="#000000" transform="translate(-17.5,21.88)"/><text class="st3"><tspan y="23.5" x="267.8">DB Connector</tspan></text></g><g transform="translate(500,3017.56)"><path id="shape5" fill="none" stroke-width="2" d="M0,0L31.8,0" stroke="#000000" transform="matrix(0,-1,1,0,11.2,54.3)"/><path id="shape6" fill="#d7d7d7" stroke-width="2" d="M0,11.5C0,5.1,5.1,0,11.5,0C17.9,0,23,5.1,23,11.5C23,17.9,17.9,23,11.5,23C5.1,23,0,17.9,0,11.5z" stroke="#000000"/></g><g transform="translate(265,2923.1)"><path id="shape7" fill="#ffffff" stroke-width="2" d="M0,0L234,0L234,35L0,35L0,0z" stroke="#000000"/><path id="shape8" fill="#ffffff" stroke-width="2" d="M0,0L35,0L35,8.8L0,8.8L0,0z" stroke="#000000" transform="translate(-17.5,4.38)"/><path id="shape9" fill="#ffffff" stroke-width="2" d="M0,0L35,0L35,8.8L0,8.8L0,0z" stroke="#000000" transform="translate(-17.5,21.88)"/><text class="st3"><tspan y="23.5" x="84.8">User Data</tspan></text></g><g transform="translate(583,2923.1)"><path id="shape10" fill="#ffffff" stroke-width="2" d="M0,0L234,0L234,35L0,35L0,0z" stroke="#000000"/><path id="shape11" fill="#ffffff" stroke-width="2" d="M0,0L35,0L35,8.8L0,8.8L0,0z" stroke="#000000" transform="translate(-17.5,4.38)"/><path id="shape12" fill="#ffffff" stroke-width="2" d="M0,0L35,0L35,8.8L0,8.8L0,0z" stroke="#000000" transform="translate(-17.5,21.88)"/><text class="st3"><tspan y="23.5" x="80.8">Book Data</tspan></text></g><g transform="translate(371,2958.1)"><path id="shape13" fill="none" stroke-width="2" d="M0,0L31.8,0" stroke="#000000" transform="matrix(0,-1,1,0,11,31.8)"/><path id="shape14" fill="none" stroke-width="2" d="M0,0C0,-19,23,-19,23,0" stroke="#000000" transform="translate(0,46)"/></g><g transform="translate(692,2958.1)"><path id="shape15" fill="none" stroke-width="2" d="M0,0L31.8,0" stroke="#000000" transform="matrix(0,-1,1,0,11,31.8)"/><path id="shape16" fill="none" stroke-width="2" d="M0,0C0,-19,23,-19,23,0" stroke="#000000" transform="translate(0,46)"/></g><g id="shape17" transform="matrix(0.99,0.13,-0.13,0.99,386,3005.1)"><path fill="none" stroke-width="2" stroke-dasharray="11,5" d="M0,0L101.6,0" stroke="#000000"/><path stroke-linecap="round" fill="#000000" stroke-width="1" d="M114,0L99.3,-8.5C100.7,-6,101.6,-3.1,101.6,0C101.6,3.1,100.7,6,99.3,8.5L114,0" stroke="#000000"/></g><g id="shape18" transform="matrix(-0.99,0.1,-0.1,-0.99,703,3001.1)"><path fill="none" stroke-width="2" stroke-dasharray="11,5" d="M0,0L169.6,0" stroke="#000000"/><path stroke-linecap="round" fill="#000000" stroke-width="1" d="M182,0L167.3,-8.5C168.7,-6,169.6,-3.1,169.6,0C169.6,3.1,168.7,6,167.3,8.5L182,0" stroke="#000000"/></g><g transform="translate(370.5,2870.1)"><path id="shape19" fill="none" stroke-width="2" d="M0,0L31.8,0" stroke="#000000" transform="matrix(0,-1,1,0,11.2,54.3)"/><path id="shape20" fill="#d7d7d7" stroke-width="2" d="M0,11.5C0,5.1,5.1,0,11.5,0C17.9,0,23,5.1,23,11.5C23,17.9,17.9,23,11.5,23C5.1,23,0,17.9,0,11.5z" stroke="#000000"/></g><g transform="translate(691,2870.1)"><path id="shape21" fill="none" stroke-width="2" d="M0,0L31.8,0" stroke="#000000" transform="matrix(0,-1,1,0,11.2,54.3)"/><path id="shape22" fill="#d7d7d7" stroke-width="2" d="M0,11.5C0,5.1,5.1,0,11.5,0C17.9,0,23,5.1,23,11.5C23,17.9,17.9,23,11.5,23C5.1,23,0,17.9,0,11.5z" stroke="#000000"/></g><g id="shape23" transform="translate(399.48,2801.26)"><text class="st1"><tspan y="16.8" x="5">p3</tspan></text></g><g id="shape24" transform="translate(659,2799.96)"><text class="st1"><tspan y="16.8" x="5">p2</tspan></text></g><g id="shape25" transform="translate(819.5,2985.42)"><text class="st1"><tspan y="16.8" x="5">p1</tspan></text></g><g transform="translate(919,2509.1)"><path id="shape26" fill="#ffffff" stroke-width="2" d="M0,0L234,0L234,61L0,61L0,0z" stroke="#000000"/><path id="shape27" fill="#ffffff" stroke-width="2" d="M0,0L61,0L61,15.3L0,15.3L0,0z" stroke="#000000" transform="translate(-30.5,7.63)"/><path id="shape28" fill="#ffffff" stroke-width="2" d="M0,0L61,0L61,15.3L0,15.3L0,0z" stroke="#000000" transform="translate(-30.5,38.13)"/><text class="st3"><tspan y="36.5" x="65.8">Access Manager</tspan></text></g><g transform="translate(265.12,2509.1)"><path id="shape29" fill="#ffffff" stroke-width="2" d="M0,0L234,0L234,61L0,61L0,0z" stroke="#000000"/><path id="shape30" fill="#ffffff" stroke-width="2" d="M0,0L61,0L61,15.3L0,15.3L0,0z" stroke="#000000" transform="translate(-30.5,7.63)"/><path id="shape31" fill="#ffffff" stroke-width="2" d="M0,0L61,0L61,15.3L0,15.3L0,0z" stroke="#000000" transform="translate(-30.5,38.13)"/><text class="st3"><tspan y="36.5" x="103.8">Profile</tspan></text></g><g transform="translate(583,2509.1)"><path id="shape32" fill="#ffffff" stroke-width="2" d="M0,0L234,0L234,61L0,61L0,0z" stroke="#000000"/><path id="shape33" fill="#ffffff" stroke-width="2" d="M0,0L61,0L61,15.3L0,15.3L0,0z" stroke="#000000" transform="translate(-30.5,7.63)"/><path id="shape34" fill="#ffffff" stroke-width="2" d="M0,0L61,0L61,15.3L0,15.3L0,0z" stroke="#000000" transform="translate(-30.5,38.13)"/><text class="st3"><tspan y="36.5" x="109.8">Book</tspan></text></g><g transform="translate(371,2569.1)"><path id="shape35" fill="none" stroke-width="2" d="M0,0L31.8,0" stroke="#000000" transform="matrix(0,-1,1,0,11,31.8)"/><path id="shape36" fill="none" stroke-width="2" d="M0,0C0,-19,23,-19,23,0" stroke="#000000" transform="translate(0,46)"/></g><g transform="translate(361,2696.1)"><g><path id="shape37" fill="#ffffff" stroke-width="2" d="M0,0L33,0L33,33L0,33L0,0z" stroke="#000000" transform="translate(4,90.5)"/></g><g transform="translate(10,35.6)"><path id="shape38" fill="none" stroke-width="2" d="M0,0L31.8,0" stroke="#000000" transform="matrix(0,-1,1,0,11.2,54.3)"/><path id="shape39" fill="#d7d7d7" stroke-width="2" d="M0,11.5C0,5.1,5.1,0,11.5,0C17.9,0,23,5.1,23,11.5C23,17.9,17.9,23,11.5,23C5.1,23,0,17.9,0,11.5z" stroke="#000000"/></g></g><g id="shape40" transform="matrix(0.01,1,-1,0.01,381.5,2615.1)"><path fill="none" stroke-width="2" stroke-dasharray="11,5" d="M0,0L104.2,0" stroke="#000000"/><path stroke-linecap="round" fill="#000000" stroke-width="1" d="M116.6,0L101.9,-8.5C103.4,-6,104.2,-3.1,104.2,0C104.2,3.1,103.4,6,101.9,8.5L116.6,0" stroke="#000000"/></g><g transform="translate(681,2696.1)"><g><path id="shape41" fill="#ffffff" stroke-width="2" d="M0,0L33,0L33,33L0,33L0,0z" stroke="#000000" transform="translate(4,90.5)"/></g><g transform="translate(10,35.6)"><path id="shape42" fill="none" stroke-width="2" d="M0,0L31.8,0" stroke="#000000" transform="matrix(0,-1,1,0,11.2,54.3)"/><path id="shape43" fill="#d7d7d7" stroke-width="2" d="M0,11.5C0,5.1,5.1,0,11.5,0C17.9,0,23,5.1,23,11.5C23,17.9,17.9,23,11.5,23C5.1,23,0,17.9,0,11.5z" stroke="#000000"/></g></g><path id="shape44" fill="none" stroke-width="2" d="M0,0L50.5,0" stroke="#000000" transform="matrix(-0.01,-1,1,-0.01,382.3,2870.1)"/><path id="shape45" fill="none" stroke-width="2" d="M0,0L50.5,0" stroke="#000000" transform="matrix(-0.02,-1,1,-0.02,702.8,2870.1)"/><g transform="translate(691,2569.1)"><path id="shape46" fill="none" stroke-width="2" d="M0,0L31.8,0" stroke="#000000" transform="matrix(0,-1,1,0,11,31.8)"/><path id="shape47" fill="none" stroke-width="2" d="M0,0C0,-19,23,-19,23,0" stroke="#000000" transform="translate(0,46)"/></g><g id="shape48" transform="matrix(0.01,1,-1,0.01,701.5,2615.1)"><path fill="none" stroke-width="2" stroke-dasharray="11,5" d="M0,0L104.2,0" stroke="#000000"/><path stroke-linecap="round" fill="#000000" stroke-width="1" d="M116.6,0L101.9,-8.5C103.4,-6,104.2,-3.1,104.2,0C104.2,3.1,103.4,6,101.9,8.5L116.6,0" stroke="#000000"/></g><g transform="translate(829.25,3004.85)"><g transform="matrix(0,1,-1,0,123.5,0)"><path id="shape49" fill="#ffffff" stroke-width="2" d="M0,0L33,0L33,33L0,33L0,0z" stroke="#000000" transform="translate(4,90.5)"/></g><g transform="matrix(-0,1,-1,-0,87.9,10)"><path id="shape50" fill="none" stroke-width="2" d="M0,0L31.8,0" stroke="#000000" transform="matrix(0,-1,1,0,11.2,54.3)"/><path id="shape51" fill="#d7d7d7" stroke-width="2" d="M0,11.5C0,5.1,5.1,0,11.5,0C17.9,0,23,5.1,23,11.5C23,17.9,17.9,23,11.5,23C5.1,23,0,17.9,0,11.5z" stroke="#000000"/></g></g><path id="shape52" fill="none" stroke-width="2" d="M0,0L306.3,0" stroke="#000000" transform="matrix(1,-0.01,0.01,1,523,3029.3)"/><g transform="translate(1024.5,2569.1)"><path id="shape53" fill="none" stroke-width="2" d="M0,0L31.8,0" stroke="#000000" transform="matrix(0,-1,1,0,11,31.8)"/><path id="shape54" fill="none" stroke-width="2" d="M0,0C0,-19,23,-19,23,0" stroke="#000000" transform="translate(0,46)"/></g><g transform="translate(371,2456.1)"><path id="shape55" fill="none" stroke-width="2" d="M0,0L31.8,0" stroke="#000000" transform="matrix(0,-1,1,0,11.2,54.3)"/><path id="shape56" fill="#d7d7d7" stroke-width="2" d="M0,11.5C0,5.1,5.1,0,11.5,0C17.9,0,23,5.1,23,11.5C23,17.9,17.9,23,11.5,23C5.1,23,0,17.9,0,11.5z" stroke="#000000"/></g><g transform="translate(688.5,2456.1)"><path id="shape57" fill="none" stroke-width="2" d="M0,0L31.8,0" stroke="#000000" transform="matrix(0,-1,1,0,11.2,54.3)"/><path id="shape58" fill="#d7d7d7" stroke-width="2" d="M0,11.5C0,5.1,5.1,0,11.5,0C17.9,0,23,5.1,23,11.5C23,17.9,17.9,23,11.5,23C5.1,23,0,17.9,0,11.5z" stroke="#000000"/></g><g id="shape59" transform="translate(26.48,1780.4)"><path fill="#ffffff" d="M0,0L0,478L1178.5,478L1178.5,100.6L446.8,100.6L446.8,0L0,0z"/><path fill="none" d="M0,0L0,478L1178.5,478L1178.5,100.6L446.8,100.6L446.8,0L0,0zM446.8,100.6L0,100.6" stroke="#000000"/><text class="st1"><tspan y="40.3" x="183.3">«Subsystem» </tspan><tspan y="63.3" class="st2" x="153.3">Request Manager</tspan></text></g><g transform="translate(1024.5,2456.1)"><path id="shape60" fill="none" stroke-width="2" d="M0,0L31.8,0" stroke="#000000" transform="matrix(0,-1,1,0,11.2,54.3)"/><path id="shape61" fill="#d7d7d7" stroke-width="2" d="M0,11.5C0,5.1,5.1,0,11.5,0C17.9,0,23,5.1,23,11.5C23,17.9,17.9,23,11.5,23C5.1,23,0,17.9,0,11.5z" stroke="#000000"/></g><g transform="translate(265,2123.4)"><path id="shape62" fill="#ffffff" stroke-width="2" d="M0,0L892,0L892,35L0,35L0,0z" stroke="#000000"/><path id="shape63" fill="#ffffff" stroke-width="2" d="M0,0L35,0L35,8.8L0,8.8L0,0z" stroke="#000000" transform="translate(-17.5,4.38)"/><path id="shape64" fill="#ffffff" stroke-width="2" d="M0,0L35,0L35,8.8L0,8.8L0,0z" stroke="#000000" transform="translate(-17.5,21.88)"/><text class="st3"><tspan y="23.5" x="386.8">Process Request</tspan></text></g><g transform="translate(476,1989.9)"><path id="shape65" fill="#ffffff" stroke-width="2" d="M0,0L672,0L672,35L0,35L0,0z" stroke="#000000"/><path id="shape66" fill="#ffffff" stroke-width="2" d="M0,0L35,0L35,8.8L0,8.8L0,0z" stroke="#000000" transform="translate(-17.5,4.38)"/><path id="shape67" fill="#ffffff" stroke-width="2" d="M0,0L35,0L35,8.8L0,8.8L0,0z" stroke="#000000" transform="translate(-17.5,21.88)"/><text class="st3"><tspan y="23.5" x="277.8">Communication</tspan></text></g><path id="shape68" fill="#ffffff" stroke-width="2" d="M0,0L33,0L33,33L0,33L0,0z" stroke="#000000" transform="translate(1019.5,2240.4)"/><g id="shape69" transform="translate(1055,2234.72)"><text class="st1"><tspan y="16.8" x="5">p1</tspan></text></g><g transform="translate(1024.5,2274.4)"><path id="shape70" fill="none" stroke-width="2" d="M0,0L31.8,0" stroke="#000000" transform="matrix(0,-1,1,0,11,31.8)"/><path id="shape71" fill="none" stroke-width="2" d="M0,0C0,-19,23,-19,23,0" stroke="#000000" transform="translate(0,46)"/></g><g id="shape72" transform="matrix(0,1,-1,0,1036,2324.4)"><path fill="none" stroke-width="2" stroke-dasharray="11,5" d="M0,0L119.3,0" stroke="#000000"/><path stroke-linecap="round" fill="#000000" stroke-width="1" d="M131.7,0L117,-8.5C118.5,-6,119.3,-3.1,119.3,0C119.3,3.1,118.5,6,117,8.5L131.7,0" stroke="#000000"/></g><path id="shape73" fill="#ffffff" stroke-width="2" d="M0,0L33,0L33,33L0,33L0,0z" stroke="#000000" transform="translate(683.5,2240.4)"/><g transform="translate(688.5,2274.4)"><path id="shape74" fill="none" stroke-width="2" d="M0,0L31.8,0" stroke="#000000" transform="matrix(0,-1,1,0,11,31.8)"/><path id="shape75" fill="none" stroke-width="2" d="M0,0C0,-19,23,-19,23,0" stroke="#000000" transform="translate(0,46)"/></g><g id="shape76" transform="matrix(0,1,-1,0,700,2324.4)"><path fill="none" stroke-width="2" stroke-dasharray="11,5" d="M0,0L119.3,0" stroke="#000000"/><path stroke-linecap="round" fill="#000000" stroke-width="1" d="M131.7,0L117,-8.5C118.5,-6,119.3,-3.1,119.3,0C119.3,3.1,118.5,6,117,8.5L131.7,0" stroke="#000000"/></g><path id="shape77" fill="#ffffff" stroke-width="2" d="M0,0L33,0L33,33L0,33L0,0z" stroke="#000000" transform="translate(365.62,2240.4)"/><g transform="translate(370.62,2274.4)"><path id="shape78" fill="none" stroke-width="2" d="M0,0L31.8,0" stroke="#000000" transform="matrix(0,-1,1,0,11,31.8)"/><path id="shape79" fill="none" stroke-width="2" d="M0,0C0,-19,23,-19,23,0" stroke="#000000" transform="translate(0,46)"/></g><g id="shape80" transform="matrix(0,1,-1,0,382.1,2324.4)"><path fill="none" stroke-width="2" stroke-dasharray="11,5" d="M0,0L119.3,0" stroke="#000000"/><path stroke-linecap="round" fill="#000000" stroke-width="1" d="M131.7,0L117,-8.5C118.5,-6,119.3,-3.1,119.3,0C119.3,3.1,118.5,6,117,8.5L131.7,0" stroke="#000000"/></g><g id="shape81" transform="translate(720,2234.72)"><text class="st1"><tspan y="16.8" x="5">p2</tspan></text></g><g id="shape82" transform="translate(401,2234.72)"><text class="st1"><tspan y="16.8" x="5">p3</tspan></text></g><g transform="translate(370.62,2158.4)"><path id="shape83" fill="none" stroke-width="2" d="M0,0L31.8,0" stroke="#000000" transform="matrix(0,-1,1,0,11,31.8)"/><path id="shape84" fill="none" stroke-width="2" d="M0,0C0,-19,23,-19,23,0" stroke="#000000" transform="translate(0,46)"/></g><path id="shape85" fill="none" stroke-width="2" d="M0,0L37,0" stroke="#000000" transform="matrix(0,-1,1,0,382.6,2240.4)"/><g transform="translate(687.62,2159.4)"><path id="shape86" fill="none" stroke-width="2" d="M0,0L31.8,0" stroke="#000000" transform="matrix(0,-1,1,0,11,31.8)"/><path id="shape87" fill="none" stroke-width="2" d="M0,0C0,-19,23,-19,23,0" stroke="#000000" transform="translate(0,46)"/></g><path id="shape88" fill="none" stroke-width="2" d="M0,0L37,0" stroke="#000000" transform="matrix(0,-1,1,0,699.6,2241.4)"/><g transform="translate(1023.62,2159.4)"><path id="shape89" fill="none" stroke-width="2" d="M0,0L31.8,0" stroke="#000000" transform="matrix(0,-1,1,0,11,31.8)"/><path id="shape90" fill="none" stroke-width="2" d="M0,0C0,-19,23,-19,23,0" stroke="#000000" transform="translate(0,46)"/></g><path id="shape91" fill="none" stroke-width="2" d="M0,0L37,0" stroke="#000000" transform="matrix(0,-1,1,0,1035.6,2241.4)"/><g transform="translate(683.5,2068.11)"><path id="shape92" fill="none" stroke-width="2" d="M0,0L31.8,0" stroke="#000000" transform="matrix(0,-1,1,0,11.2,54.3)"/><path id="shape93" fill="#d7d7d7" stroke-width="2" d="M0,11.5C0,5.1,5.1,0,11.5,0C17.9,0,23,5.1,23,11.5C23,17.9,17.9,23,11.5,23C5.1,23,0,17.9,0,11.5z" stroke="#000000"/></g><g transform="matrix(-1,0,0,-1,838,2079.7)"><path id="shape94" fill="none" stroke-width="2" d="M0,0L31.8,0" stroke="#000000" transform="matrix(0,-1,1,0,11.2,54.3)"/><path id="shape95" fill="#d7d7d7" stroke-width="2" d="M0,11.5C0,5.1,5.1,0,11.5,0C17.9,0,23,5.1,23,11.5C23,17.9,17.9,23,11.5,23C5.1,23,0,17.9,0,11.5z" stroke="#000000"/></g><g transform="translate(683.5,2025.4)"><path id="shape96" fill="none" stroke-width="2" d="M0,0L31.8,0" stroke="#000000" transform="matrix(0,-1,1,0,11,31.8)"/><path id="shape97" fill="none" stroke-width="2" d="M0,0C0,-19,23,-19,23,0" stroke="#000000" transform="translate(0,46)"/></g><g transform="matrix(-1,-0,0,-1,837.8,2122.4)"><path id="shape98" fill="none" stroke-width="2" d="M0,0L31.8,0" stroke="#000000" transform="matrix(0,-1,1,0,11,31.8)"/><path id="shape99" fill="none" stroke-width="2" d="M0,0C0,-19,23,-19,23,0" stroke="#000000" transform="translate(0,46)"/></g><g transform="translate(815,1935.4)"><path id="shape100" fill="none" stroke-width="2" d="M0,0L31.8,0" stroke="#000000" transform="matrix(0,-1,1,0,11.2,54.3)"/><path id="shape101" fill="#d7d7d7" stroke-width="2" d="M0,11.5C0,5.1,5.1,0,11.5,0C17.9,0,23,5.1,23,11.5C23,17.9,17.9,23,11.5,23C5.1,23,0,17.9,0,11.5z" stroke="#000000"/></g><g transform="translate(805,1773.4)"><g><path id="shape102" fill="#ffffff" stroke-width="2" d="M0,0L33,0L33,33L0,33L0,0z" stroke="#000000" transform="translate(4,90.5)"/></g><g transform="translate(10,35.6)"><path id="shape103" fill="none" stroke-width="2" d="M0,0L31.8,0" stroke="#000000" transform="matrix(0,-1,1,0,11.2,54.3)"/><path id="shape104" fill="#d7d7d7" stroke-width="2" d="M0,11.5C0,5.1,5.1,0,11.5,0C17.9,0,23,5.1,23,11.5C23,17.9,17.9,23,11.5,23C5.1,23,0,17.9,0,11.5z" stroke="#000000"/></g></g><path id="shape105" fill="none" stroke-width="2" d="M0,0L37,0" stroke="#000000" transform="matrix(0,-1,1,0,826.8,1935.4)"/><g transform="translate(905,2615.79)"><path id="shape106" fill="none" stroke-width="2" stroke-dasharray="11,5" d="M0,0L188.6,0" stroke="#000000" transform="matrix(0,1,-1,0,129.7,0)"/><path id="shape107" fill="none" stroke-width="2" stroke-dasharray="11,5" d="M0,0L129.7,0" stroke="#000000" transform="translate(0,188.61)"/><g id="shape108" transform="matrix(0,1,-1,0,0.4,188.6)"><path fill="none" stroke-width="2" stroke-dasharray="11,5" d="M0,0L198.1,0" stroke="#000000"/><path stroke-linecap="round" fill="#000000" stroke-width="1" d="M210.5,0L195.8,-8.5C197.2,-6,198.1,-3.1,198.1,0C198.1,3.1,197.2,6,195.8,8.5L210.5,0" stroke="#000000"/></g></g><g id="shape109" transform="translate(1059,2979.35)"><path fill="none" d="M0,0L0,90L260,90L260,18.9L98.6,18.9L98.6,0L0,0zM98.6,18.9L0,18.9" stroke="#000000"/><text class="st1"><tspan y="47.5" x="89">«Subsystem» </tspan><tspan y="70.5" class="st2" x="95">Analysis</tspan></text></g><g transform="matrix(0,1,-1,0,1059,3014.8)"><path id="shape110" fill="none" stroke-width="2" d="M0,0L31.8,0" stroke="#000000" transform="matrix(0,-1,1,0,11,31.8)"/><path id="shape111" fill="none" stroke-width="2" d="M0,0C0,-19,23,-19,23,0" stroke="#000000" transform="translate(0,46)"/></g><g id="shape112" transform="matrix(-1,0,0,-1,1013,3026.7)"><path fill="none" stroke-width="2" stroke-dasharray="11,5" d="M0,0L83.4,0" stroke="#000000"/><path stroke-linecap="round" fill="#000000" stroke-width="1" d="M95.9,0L81.2,-8.5C82.6,-6,83.4,-3.1,83.4,0C83.4,3.1,82.6,6,81.2,8.5L95.9,0" stroke="#000000"/></g><g transform="translate(465,2456.1)"><path id="shape113" fill="none" stroke-width="2" d="M0,0L31.8,0" stroke-opacity="0.2" stroke="#000000" transform="matrix(0,-1,1,0,11.2,54.3)"/><path id="shape114" fill="#d7d7d7" stroke-width="2" d="M0,11.5C0,5.1,5.1,0,11.5,0C17.9,0,23,5.1,23,11.5C23,17.9,17.9,23,11.5,23C5.1,23,0,17.9,0,11.5z" stroke-opacity="0.2" stroke="#000000"/></g><g transform="matrix(-1,-0,0,-1,642.3,2510.4)"><path id="shape115" fill="none" stroke-width="2" d="M0,0L31.8,0" stroke-opacity="0.2" stroke="#000000" transform="matrix(0,-1,1,0,11,31.8)"/><path id="shape116" fill="none" stroke-width="2" d="M0,0C0,-19,23,-19,23,0" stroke-opacity="0.2" stroke="#000000" transform="translate(0,46)"/></g><g transform="translate(476.77,2400.4)"><g id="shape117" transform="matrix(0,1,-1,0,0,0)"><path fill="none" stroke-width="2" stroke-dasharray="11,5" d="M0,0L43.3,0" stroke-opacity="0.2" stroke="#000000"/><path stroke-linecap="round" fill-opacity="0.2" fill="#000000" stroke-width="1" d="M55.7,0L41,-8.5C42.5,-6,43.3,-3.1,43.3,0C43.3,3.1,42.5,6,41,8.5L55.7,0" stroke-opacity="0.2" stroke="#000000"/></g><path id="shape118" fill="none" stroke-width="2" stroke-dasharray="11,5" d="M0,0L154.2,0" stroke-opacity="0.2" stroke="#000000"/><path id="shape119" fill="none" stroke-width="2" stroke-dasharray="11,5" d="M0,0L60,0" stroke-opacity="0.2" stroke="#000000" transform="matrix(0,-1,1,0,154.2,60)"/></g><g id="shape120" transform="translate(457.75,2980.42)"><text class="st1"><tspan y="16.8" x="9.3">Query Performer</tspan></text></g><g id="shape121" transform="translate(382.48,2870.11)"><text class="st1"><tspan y="16.8" x="25.3">User Query</tspan></text></g><g id="shape122" transform="translate(586,2870.11)"><text class="st1"><tspan y="16.8" x="22.3">Book Query</tspan></text></g><g id="shape123" transform="translate(703,2456.11)"><text class="st1"><tspan y="16.8" x="14.3">Book Manager</tspan></text></g><g id="shape124" transform="translate(253,2456.11)"><text class="st1"><tspan y="16.8" x="12.3">Profile Manager</tspan></text></g><g id="shape125" transform="translate(1036.5,2456.11)"><text class="st1"><tspan y="16.8" x="24.3">Check Auth</tspan></text></g><g id="shape126" transform="translate(830,2064.12)"><text class="st1"><tspan y="16.8" x="20.3">Send Answer</tspan></text></g><g id="shape127" transform="translate(565.75,2064.12)"><text class="st1"><tspan y="16.8" x="10.3">Process Request</tspan></text></g><g id="shape128" transform="translate(830,1935.41)"><text class="st1"><tspan y="6.8" x="35.3">Android </tspan><tspan y="26.8" x="16.3">Communicator</tspan></text></g><g id="shape129" transform="translate(359,1163.7)"><path fill="#ffffff" d="M0,0L0,478L846,478L846,100.6L320.8,100.6L320.8,0L0,0z"/><path fill="none" d="M0,0L0,478L846,478L846,100.6L320.8,100.6L320.8,0L0,0zM320.8,100.6L0,100.6" stroke="#000000"/><text class="st4"><tspan y="37.8" x="114.9">«Subsystem» </tspan><tspan y="62.8" class="st2" x="85.9">Request Manager</tspan></text></g><g id="shape130" transform="translate(844,1879.9)"><text class="st1"><tspan y="16.8" x="5">p4</tspan></text></g><path id="shape131" fill="#ffffff" stroke-width="2" d="M0,0L33,0L33,33L0,33L0,0z" stroke="#000000" transform="translate(809.5,1624.4)"/><g transform="translate(814.5,1658.4)"><path id="shape132" fill="none" stroke-width="2" d="M0,0L31.8,0" stroke="#000000" transform="matrix(0,-1,1,0,11,31.8)"/><path id="shape133" fill="none" stroke-width="2" d="M0,0C0,-19,23,-19,23,0" stroke="#000000" transform="translate(0,46)"/></g><g id="shape134" transform="translate(846,1618.72)"><text class="st1"><tspan y="16.8" x="5">p3</tspan></text></g><g transform="translate(813.62,1543.4)"><path id="shape135" fill="none" stroke-width="2" d="M0,0L31.8,0" stroke="#000000" transform="matrix(0,-1,1,0,11,31.8)"/><path id="shape136" fill="none" stroke-width="2" d="M0,0C0,-19,23,-19,23,0" stroke="#000000" transform="translate(0,46)"/></g><path id="shape137" fill="none" stroke-width="2" d="M0,0L37,0" stroke="#000000" transform="matrix(0,-1,1,0,825.6,1625.4)"/><g id="shape138" transform="matrix(0,1,-1,0,764,1111)"><path fill="none" stroke-width="2" stroke-dasharray="11,5" d="M0,0L70.3,0" stroke="#000000"/><path stroke-linecap="round" fill="#000000" stroke-width="1" d="M82.7,0L68,-8.5C69.5,-6,70.3,-3.1,70.3,0C70.3,3.1,69.5,6,68,8.5L82.7,0" stroke="#000000"/></g><g transform="translate(480,1506.7)"><path id="shape139" fill="#ffffff" stroke-width="2" d="M0,0L688,0L688,35L0,35L0,0z" stroke="#000000"/><path id="shape140" fill="#ffffff" stroke-width="2" d="M0,0L35,0L35,8.8L0,8.8L0,0z" stroke="#000000" transform="translate(-17.5,4.38)"/><path id="shape141" fill="#ffffff" stroke-width="2" d="M0,0L35,0L35,8.8L0,8.8L0,0z" stroke="#000000" transform="translate(-17.5,21.88)"/><text class="st5"><tspan y="23" x="280.8">Communication</tspan></text></g><g transform="translate(482.5,1376.2)"><path id="shape142" fill="#ffffff" stroke-width="2" d="M0,0L688,0L688,35L0,35L0,0z" stroke="#000000"/><path id="shape143" fill="#ffffff" stroke-width="2" d="M0,0L35,0L35,8.8L0,8.8L0,0z" stroke="#000000" transform="translate(-17.5,4.38)"/><path id="shape144" fill="#ffffff" stroke-width="2" d="M0,0L35,0L35,8.8L0,8.8L0,0z" stroke="#000000" transform="translate(-17.5,21.88)"/><text class="st5"><tspan y="23" x="306.8">Processing</tspan></text></g><g transform="translate(752.38,1453.41)"><path id="shape145" fill="none" stroke-width="2" d="M0,0L31.8,0" stroke="#000000" transform="matrix(0,-1,1,0,11.2,54.3)"/><path id="shape146" fill="#d7d7d7" stroke-width="2" d="M0,11.5C0,5.1,5.1,0,11.5,0C17.9,0,23,5.1,23,11.5C23,17.9,17.9,23,11.5,23C5.1,23,0,17.9,0,11.5z" stroke="#000000"/></g><g transform="matrix(-1,0,0,-1,906.9,1465)"><path id="shape147" fill="none" stroke-width="2" d="M0,0L31.8,0" stroke="#000000" transform="matrix(0,-1,1,0,11.2,54.3)"/><path id="shape148" fill="#d7d7d7" stroke-width="2" d="M0,11.5C0,5.1,5.1,0,11.5,0C17.9,0,23,5.1,23,11.5C23,17.9,17.9,23,11.5,23C5.1,23,0,17.9,0,11.5z" stroke="#000000"/></g><g transform="translate(752.38,1410.7)"><path id="shape149" fill="none" stroke-width="2" d="M0,0L31.8,0" stroke="#000000" transform="matrix(0,-1,1,0,11,31.8)"/><path id="shape150" fill="none" stroke-width="2" d="M0,0C0,-19,23,-19,23,0" stroke="#000000" transform="translate(0,46)"/></g><g transform="matrix(-1,-0,0,-1,906.7,1507.7)"><path id="shape151" fill="none" stroke-width="2" d="M0,0L31.8,0" stroke="#000000" transform="matrix(0,-1,1,0,11,31.8)"/><path id="shape152" fill="none" stroke-width="2" d="M0,0C0,-19,23,-19,23,0" stroke="#000000" transform="translate(0,46)"/></g><g id="shape153" transform="translate(898.88,1449.42)"><text class="st4"><tspan y="15.8" x="9.3">Receive Answer</tspan></text></g><g id="shape154" transform="translate(634.63,1449.42)"><text class="st4"><tspan y="15.8" x="17.3">Send Request</tspan></text></g><g transform="translate(752.25,1322.1)"><path id="shape155" fill="none" stroke-width="2" d="M0,0L31.8,0" stroke="#000000" transform="matrix(0,-1,1,0,11.2,54.3)"/><path id="shape156" fill="#d7d7d7" stroke-width="2" d="M0,11.5C0,5.1,5.1,0,11.5,0C17.9,0,23,5.1,23,11.5C23,17.9,17.9,23,11.5,23C5.1,23,0,17.9,0,11.5z" stroke="#000000"/></g><g transform="translate(742.25,1160.1)"><g><path id="shape157" fill="#ffffff" stroke-width="2" d="M0,0L33,0L33,33L0,33L0,0z" stroke="#000000" transform="translate(4,90.5)"/></g><g transform="translate(10,35.6)"><path id="shape158" fill="none" stroke-width="2" d="M0,0L31.8,0" stroke="#000000" transform="matrix(0,-1,1,0,11.2,54.3)"/><path id="shape159" fill="#d7d7d7" stroke-width="2" d="M0,11.5C0,5.1,5.1,0,11.5,0C17.9,0,23,5.1,23,11.5C23,17.9,17.9,23,11.5,23C5.1,23,0,17.9,0,11.5z" stroke="#000000"/></g></g><path id="shape160" fill="none" stroke-width="2" d="M0,0L37,0" stroke="#000000" transform="matrix(-0,-1,1,-0,764,1322.1)"/><g id="shape161" transform="translate(634.63,1322.11)"><text class="st4"><tspan y="5.8" x="31.3">Generate </tspan><tspan y="25.8" x="34.3">Request</tspan></text></g><g id="shape162" transform="translate(781.25,1266.6)"><text class="st1"><tspan y="16.8" x="5">p2</tspan></text></g><g transform="matrix(-1,-0,0,-1,906.7,1376.4)"><path id="shape163" fill="none" stroke-width="2" d="M0,0L31.8,0" stroke="#000000" transform="matrix(0,-1,1,0,11,31.8)"/><path id="shape164" fill="none" stroke-width="2" d="M0,0C0,-19,23,-19,23,0" stroke="#000000" transform="translate(0,46)"/></g><path id="shape165" fill="none" stroke-width="2" d="M0,0L50.3,0" stroke="#000000" transform="matrix(0,-1,1,0,895.6,1333.7)"/><g id="shape166" transform="translate(912.88,1264.89)"><text class="st1"><tspan y="16.8" x="5">p1</tspan></text></g><g id="shape167" transform="translate(359,246)"><path fill="#ffffff" d="M0,0L0,801L846,801L846,168.6L320.8,168.6L320.8,0L0,0z"/><path fill="none" d="M0,0L0,801L846,801L846,168.6L320.8,168.6L320.8,0L0,0zM320.8,168.6L0,168.6" stroke="#000000"/><text class="st1"><tspan y="72.3" x="119.9">«Subsystem» </tspan><tspan y="95.3" class="st2" x="143.9">GUI</tspan></text></g><g transform="translate(482.5,899)"><path id="shape168" fill="#ffffff" stroke-width="2" d="M0,0L688,0L688,35L0,35L0,0z" stroke="#000000"/><path id="shape169" fill="#ffffff" stroke-width="2" d="M0,0L35,0L35,8.8L0,8.8L0,0z" stroke="#000000" transform="translate(-17.5,4.38)"/><path id="shape170" fill="#ffffff" stroke-width="2" d="M0,0L35,0L35,8.8L0,8.8L0,0z" stroke="#000000" transform="translate(-17.5,21.88)"/><text class="st3"><tspan y="23.5" x="286.8">Data Dispatcher</tspan></text></g><g transform="translate(877.88,1203.65)"><g transform="translate(-4,-45.27)"><path id="shape171" fill="#ffffff" stroke-width="2" d="M0,0L33,0L33,33L0,33L0,0z" stroke="#000000" transform="translate(4,91.5)"/></g><g transform="matrix(-1,-0,0,-1,27.8,46.1)"><path id="shape172" fill="none" stroke-width="2" d="M0,0L31.8,0" stroke="#000000" transform="matrix(0,-1,1,0,11,31.8)"/><path id="shape173" fill="none" stroke-width="2" d="M0,0C0,-19,23,-19,23,0" stroke="#000000" transform="translate(0,46)"/></g></g><g id="shape174" transform="translate(783.25,1022.6)"><text class="st1"><tspan y="16.8" x="5">p2</tspan></text></g><g id="shape175" transform="translate(913.88,1020.89)"><text class="st1"><tspan y="16.8" x="5">p1</tspan></text></g><g transform="translate(748.25,1030.6)"><path id="shape176" fill="#ffffff" stroke-width="2" d="M0,0L33,0L33,33L0,33L0,0z" stroke="#000000"/><g transform="translate(5,33.4)"><path id="shape177" fill="none" stroke-width="2" d="M0,0L31.8,0" stroke="#000000" transform="matrix(0,-1,1,0,11,31.8)"/><path id="shape178" fill="none" stroke-width="2" d="M0,0C0,-19,23,-19,23,0" stroke="#000000" transform="translate(0,46)"/></g></g><g transform="translate(878.88,1029.89)"><g transform="matrix(-1,0,-0,-1,27,85.2)"><path id="shape179" fill="none" stroke-width="2" d="M0,0L31.8,0" stroke="#000000" transform="matrix(0,-1,1,0,11.2,54.3)"/><path id="shape180" fill="#d7d7d7" stroke-width="2" d="M0,11.5C0,5.1,5.1,0,11.5,0C17.9,0,23,5.1,23,11.5C23,17.9,17.9,23,11.5,23C5.1,23,0,17.9,0,11.5z" stroke="#000000"/></g><path id="shape181" fill="#ffffff" stroke-width="2" d="M0,0L33,0L33,33L0,33L0,0z" stroke="#000000"/></g><g id="shape182" transform="matrix(0,-1,1,0,894.1,1205)"><path fill="none" stroke-width="2" stroke-dasharray="11,5" d="M0,0L74.4,0" stroke="#000000"/><path stroke-linecap="round" fill="#000000" stroke-width="1" d="M86.9,0L72.2,-8.5C73.6,-6,74.4,-3.1,74.4,0C74.4,3.1,73.6,6,72.2,8.5L86.9,0" stroke="#000000"/></g><g transform="matrix(-1,0,-0,-1,907.9,988.1)"><path id="shape183" fill="none" stroke-width="2" d="M0,0L31.8,0" stroke="#000000" transform="matrix(0,-1,1,0,11.2,54.3)"/><path id="shape184" fill="#d7d7d7" stroke-width="2" d="M0,11.5C0,5.1,5.1,0,11.5,0C17.9,0,23,5.1,23,11.5C23,17.9,17.9,23,11.5,23C5.1,23,0,17.9,0,11.5z" stroke="#000000"/></g><g transform="translate(754.25,933.85)"><path id="shape185" fill="none" stroke-width="2" d="M0,0L31.8,0" stroke="#000000" transform="matrix(0,-1,1,0,11,31.8)"/><path id="shape186" fill="none" stroke-width="2" d="M0,0C0,-19,23,-19,23,0" stroke="#000000" transform="translate(0,46)"/></g><path id="shape187" fill="none" stroke-width="2" d="M0,0L51.6,0" stroke="#000000" transform="matrix(0,-1,1,0,765.3,1030.6)"/><path id="shape188" fill="none" stroke-width="2" d="M0,0L41.7,0" stroke="#000000" transform="matrix(0.01,-1,1,0.01,895.9,1029.9)"/><g transform="translate(577.23,846)"><path id="shape189" fill="none" stroke-width="2" d="M0,0L31.8,0" stroke="#000000" transform="matrix(0,-1,1,0,11.2,54.3)"/><path id="shape190" fill="#d7d7d7" stroke-width="2" d="M0,11.5C0,5.1,5.1,0,11.5,0C17.9,0,23,5.1,23,11.5C23,17.9,17.9,23,11.5,23C5.1,23,0,17.9,0,11.5z" stroke="#000000"/></g><g transform="matrix(-1,-0,0,-1,1099.9,898.3)"><path id="shape191" fill="none" stroke-width="2" d="M0,0L31.8,0" stroke="#000000" transform="matrix(0,-1,1,0,11,31.8)"/><path id="shape192" fill="none" stroke-width="2" d="M0,0C0,-19,23,-19,23,0" stroke="#000000" transform="translate(0,46)"/></g><g transform="translate(688,437)"><path id="shape193" fill="#ffffff" stroke-width="2" d="M0,0L291.5,0L291.5,35L0,35L0,0z" stroke="#000000"/><path id="shape194" fill="#ffffff" stroke-width="2" d="M0,0L35,0L35,8.8L0,8.8L0,0z" stroke="#000000" transform="translate(-17.5,4.38)"/><path id="shape195" fill="#ffffff" stroke-width="2" d="M0,0L35,0L35,8.8L0,8.8L0,0z" stroke="#000000" transform="translate(-17.5,21.88)"/><text class="st3"><tspan y="23.5" x="128.5">Signin</tspan></text></g><g transform="translate(688,504.5)"><path id="shape196" fill="#ffffff" stroke-width="2" d="M0,0L291.5,0L291.5,35L0,35L0,0z" stroke="#000000"/><path id="shape197" fill="#ffffff" stroke-width="2" d="M0,0L35,0L35,8.8L0,8.8L0,0z" stroke="#000000" transform="translate(-17.5,4.38)"/><path id="shape198" fill="#ffffff" stroke-width="2" d="M0,0L35,0L35,8.8L0,8.8L0,0z" stroke="#000000" transform="translate(-17.5,21.88)"/><text class="st3"><tspan y="23.5" x="130.5">Login</tspan></text></g><g transform="translate(688,707)"><path id="shape199" fill="#ffffff" stroke-width="2" d="M0,0L291.5,0L291.5,35L0,35L0,0z" stroke="#000000"/><path id="shape200" fill="#ffffff" stroke-width="2" d="M0,0L35,0L35,8.8L0,8.8L0,0z" stroke="#000000" transform="translate(-17.5,4.38)"/><path id="shape201" fill="#ffffff" stroke-width="2" d="M0,0L35,0L35,8.8L0,8.8L0,0z" stroke="#000000" transform="translate(-17.5,21.88)"/><text class="st3"><tspan y="23.5" x="78.5">Book Registration</tspan></text></g><g transform="translate(688,639.5)"><path id="shape202" fill="#ffffff" stroke-width="2" d="M0,0L291.5,0L291.5,35L0,35L0,0z" stroke="#000000"/><path id="shape203" fill="#ffffff" stroke-width="2" d="M0,0L35,0L35,8.8L0,8.8L0,0z" stroke="#000000" transform="translate(-17.5,4.38)"/><path id="shape204" fill="#ffffff" stroke-width="2" d="M0,0L35,0L35,8.8L0,8.8L0,0z" stroke="#000000" transform="translate(-17.5,21.88)"/><text class="st3"><tspan y="23.5" x="100.5">Taken Books</tspan></text></g><g transform="translate(688,572)"><path id="shape205" fill="#ffffff" stroke-width="2" d="M0,0L291.5,0L291.5,35L0,35L0,0z" stroke="#000000"/><path id="shape206" fill="#ffffff" stroke-width="2" d="M0,0L35,0L35,8.8L0,8.8L0,0z" stroke="#000000" transform="translate(-17.5,4.38)"/><path id="shape207" fill="#ffffff" stroke-width="2" d="M0,0L35,0L35,8.8L0,8.8L0,0z" stroke="#000000" transform="translate(-17.5,21.88)"/><text class="st3"><tspan y="23.5" x="97.5">Book Pick up</tspan></text></g><g transform="matrix(0,1,-1,0,1032.5,713)"><path id="shape208" fill="none" stroke-width="2" d="M0,0L31.8,0" stroke="#000000" transform="matrix(0,-1,1,0,11.2,54.3)"/><path id="shape209" fill="#d7d7d7" stroke-width="2" d="M0,11.5C0,5.1,5.1,0,11.5,0C17.9,0,23,5.1,23,11.5C23,17.9,17.9,23,11.5,23C5.1,23,0,17.9,0,11.5z" stroke="#000000"/></g><g transform="matrix(0,1,-1,0,1032.5,645.5)"><path id="shape210" fill="none" stroke-width="2" d="M0,0L31.8,0" stroke="#000000" transform="matrix(0,-1,1,0,11.2,54.3)"/><path id="shape211" fill="#d7d7d7" stroke-width="2" d="M0,11.5C0,5.1,5.1,0,11.5,0C17.9,0,23,5.1,23,11.5C23,17.9,17.9,23,11.5,23C5.1,23,0,17.9,0,11.5z" stroke="#000000"/></g><g transform="matrix(0,1,-1,0,1032.5,578)"><path id="shape212" fill="none" stroke-width="2" d="M0,0L31.8,0" stroke="#000000" transform="matrix(0,-1,1,0,11.2,54.3)"/><path id="shape213" fill="#d7d7d7" stroke-width="2" d="M0,11.5C0,5.1,5.1,0,11.5,0C17.9,0,23,5.1,23,11.5C23,17.9,17.9,23,11.5,23C5.1,23,0,17.9,0,11.5z" stroke="#000000"/></g><g transform="matrix(0,1,-1,0,1032.5,510.5)"><path id="shape214" fill="none" stroke-width="2" d="M0,0L31.8,0" stroke="#000000" transform="matrix(0,-1,1,0,11.2,54.3)"/><path id="shape215" fill="#d7d7d7" stroke-width="2" d="M0,11.5C0,5.1,5.1,0,11.5,0C17.9,0,23,5.1,23,11.5C23,17.9,17.9,23,11.5,23C5.1,23,0,17.9,0,11.5z" stroke="#000000"/></g><g transform="matrix(0,1,-1,0,1032.5,443)"><path id="shape216" fill="none" stroke-width="2" d="M0,0L31.8,0" stroke="#000000" transform="matrix(0,-1,1,0,11.2,54.3)"/><path id="shape217" fill="#d7d7d7" stroke-width="2" d="M0,11.5C0,5.1,5.1,0,11.5,0C17.9,0,23,5.1,23,11.5C23,17.9,17.9,23,11.5,23C5.1,23,0,17.9,0,11.5z" stroke="#000000"/></g><g id="shape218" transform="matrix(-1,0,0,-1,1089,724.8)"><path fill="none" stroke-width="2" stroke-dasharray="11,5" d="M0,0L44.1,0" stroke="#000000"/><path stroke-linecap="round" fill="#000000" stroke-width="1" d="M56.5,0L41.8,-8.5C43.2,-6,44.1,-3.1,44.1,0C44.1,3.1,43.2,6,41.8,8.5L56.5,0" stroke="#000000"/></g><g id="shape219" transform="matrix(-1,0,0,-1,1089,657.3)"><path fill="none" stroke-width="2" stroke-dasharray="11,5" d="M0,0L44.1,0" stroke="#000000"/><path stroke-linecap="round" fill="#000000" stroke-width="1" d="M56.5,0L41.8,-8.5C43.2,-6,44.1,-3.1,44.1,0C44.1,3.1,43.2,6,41.8,8.5L56.5,0" stroke="#000000"/></g><g id="shape220" transform="matrix(-1,0,0,-1,1089,454.8)"><path fill="none" stroke-width="2" stroke-dasharray="11,5" d="M0,0L44.1,0" stroke="#000000"/><path stroke-linecap="round" fill="#000000" stroke-width="1" d="M56.5,0L41.8,-8.5C43.2,-6,44.1,-3.1,44.1,0C44.1,3.1,43.2,6,41.8,8.5L56.5,0" stroke="#000000"/></g><g id="shape221" transform="matrix(-1,0,0,-1,1089,522.3)"><path fill="none" stroke-width="2" stroke-dasharray="11,5" d="M0,0L44.1,0" stroke="#000000"/><path stroke-linecap="round" fill="#000000" stroke-width="1" d="M56.5,0L41.8,-8.5C43.2,-6,44.1,-3.1,44.1,0C44.1,3.1,43.2,6,41.8,8.5L56.5,0" stroke="#000000"/></g><g id="shape222" transform="matrix(-1,0,0,-1,1089,589.8)"><path fill="none" stroke-width="2" stroke-dasharray="11,5" d="M0,0L44.1,0" stroke="#000000"/><path stroke-linecap="round" fill="#000000" stroke-width="1" d="M56.5,0L41.8,-8.5C43.2,-6,44.1,-3.1,44.1,0C44.1,3.1,43.2,6,41.8,8.5L56.5,0" stroke="#000000"/></g><path id="shape223" fill="none" stroke-width="2" stroke-dasharray="11,5" d="M0,0L395.2,0" stroke="#000000" transform="matrix(0,-1,1,0,1089,850)"/><g transform="matrix(0,1,-1,0,689.3,443)"><path id="shape224" fill="none" stroke-width="2" d="M0,0L31.8,0" stroke="#000000" transform="matrix(0,-1,1,0,11,31.8)"/><path id="shape225" fill="none" stroke-width="2" d="M0,0C0,-19,23,-19,23,0" stroke="#000000" transform="translate(0,46)"/></g><g transform="matrix(0,1,-1,0,689.3,510.5)"><path id="shape226" fill="none" stroke-width="2" d="M0,0L31.8,0" stroke="#000000" transform="matrix(0,-1,1,0,11,31.8)"/><path id="shape227" fill="none" stroke-width="2" d="M0,0C0,-19,23,-19,23,0" stroke="#000000" transform="translate(0,46)"/></g><g transform="matrix(0,1,-1,0,689.3,578)"><path id="shape228" fill="none" stroke-width="2" d="M0,0L31.8,0" stroke="#000000" transform="matrix(0,-1,1,0,11,31.8)"/><path id="shape229" fill="none" stroke-width="2" d="M0,0C0,-19,23,-19,23,0" stroke="#000000" transform="translate(0,46)"/></g><g transform="matrix(0,1,-1,0,689.3,645.5)"><path id="shape230" fill="none" stroke-width="2" d="M0,0L31.8,0" stroke="#000000" transform="matrix(0,-1,1,0,11,31.8)"/><path id="shape231" fill="none" stroke-width="2" d="M0,0C0,-19,23,-19,23,0" stroke="#000000" transform="translate(0,46)"/></g><g transform="matrix(0,1,-1,0,689.3,713)"><path id="shape232" fill="none" stroke-width="2" d="M0,0L31.8,0" stroke="#000000" transform="matrix(0,-1,1,0,11,31.8)"/><path id="shape233" fill="none" stroke-width="2" d="M0,0C0,-19,23,-19,23,0" stroke="#000000" transform="translate(0,46)"/></g><g id="shape234" transform="matrix(0,-1,1,0,589,846)"><path fill="none" stroke-width="2" stroke-dasharray="11,5" d="M12.4,0L392,0" stroke="#000000"/><path stroke-linecap="round" fill="#000000" stroke-width="1" d="M0,0L14.7,8.5C13.2,6,12.4,3.1,12.4,0C12.4,-3.1,13.2,-6,14.7,-8.5L0,0" stroke="#000000"/></g><path id="shape235" fill="none" stroke-width="2" stroke-dasharray="11,5" d="M0,0L56.5,0" stroke="#000000" transform="matrix(-1,0,0,-1,646,455)"/><path id="shape236" fill="none" stroke-width="2" stroke-dasharray="11,5" d="M0,0L56.5,0" stroke="#000000" transform="matrix(-1,0,0,-1,646,522)"/><path id="shape237" fill="none" stroke-width="2" stroke-dasharray="11,5" d="M0,0L56.5,0" stroke="#000000" transform="matrix(-1,0,0,-1,646,589)"/><path id="shape238" fill="none" stroke-width="2" stroke-dasharray="11,5" d="M0,0L56.5,0" stroke="#000000" transform="matrix(-1,0,0,-1,646,657)"/><path id="shape239" fill="none" stroke-width="2" stroke-dasharray="11,5" d="M0,0L56.5,0" stroke="#000000" transform="matrix(-1,0,0,-1,646,724)"/><g id="shape240" transform="matrix(-0,1,-1,-0,826,1701)"><path fill="none" stroke-width="2" stroke-dasharray="11,5" d="M0,0L95.6,0" stroke="#000000"/><path stroke-linecap="round" fill="#000000" stroke-width="1" d="M108,0L93.3,-8.5C94.8,-6,95.6,-3.1,95.6,0C95.6,3.1,94.8,6,93.3,8.5L108,0" stroke="#000000"/></g><g id="shape241" transform="translate(605,846)"><text class="st1"><tspan y="16.8" x="4">Send Data</tspan></text></g><g id="shape242" transform="translate(907.88,965.46)"><text class="st1"><tspan y="6.8" x="12">Receive </tspan><tspan y="26.8" x="22">Data</tspan></text></g></g></svg>