<svg width="2255" height="3185" xmlns="http://www.w3.org/2000/svg" xmlns:xlink="http://www.w3.org/1999/xlink" viewBox="0 0 2255 3185" xmlns:ev="http://www.w3.org/2001/xml-events"><style type="text/css"><![CDATA[
.st1 {fill:#000000;font-family:Times New Roman;font-size:12pt}
.st3 {fill:#000000;font-family:Times New Roman;font-size:16pt}
.st2 {font-size:16pt}
]]></style><defs/><g transform="translate(5,5)" id="page1"><rect fill="#ffffff" x="0" stroke="#808080" width="2245" height="3175" y="0"/><g transform="translate(25.48,2721.1)" id="shape1"><path fill="#ffffff" d="M0,0L0,393L819,393L819,82.7L310.5,82.7L310.5,0L0,0z"/><path fill="none" stroke="#000000" d="M0,0L0,393L819,393L819,82.7L310.5,82.7L310.5,0L0,0zM310.5,82.7L0,82.7"/><text class="st1"><tspan x="115.2" y="31.9">«Subsystem» </tspan><tspan x="99.2" class="st2" y="54.9">Gestione Dati</tspan></text></g><g transform="translate(178,3073.1)"><path fill="#ffffff" stroke="#000000" stroke-width="2" id="shape2" d="M0,0L639,0L639,35L0,35L0,0z"/><path fill="#ffffff" stroke="#000000" transform="translate(-17.5,4.38)" stroke-width="2" id="shape3" d="M0,0L35,0L35,8.8L0,8.8L0,0z"/><path fill="#ffffff" stroke="#000000" transform="translate(-17.5,21.88)" stroke-width="2" id="shape4" d="M0,0L35,0L35,8.8L0,8.8L0,0z"/><text class="st3"><tspan x="267.8" y="23.5">DB Connector</tspan></text></g><g transform="translate(500,3017.56)"><path fill="none" stroke="#000000" transform="matrix(0,-1,1,0,11.2,54.3)" stroke-width="2" id="shape5" d="M0,0L31.8,0"/><path fill="#d7d7d7" stroke="#000000" stroke-width="2" id="shape6" d="M0,11.5C0,5.1,5.1,0,11.5,0C17.9,0,23,5.1,23,11.5C23,17.9,17.9,23,11.5,23C5.1,23,0,17.9,0,11.5z"/></g><g transform="translate(265,2923.1)"><path fill="#ffffff" stroke="#000000" stroke-width="2" id="shape7" d="M0,0L234,0L234,35L0,35L0,0z"/><path fill="#ffffff" stroke="#000000" transform="translate(-17.5,4.38)" stroke-width="2" id="shape8" d="M0,0L35,0L35,8.8L0,8.8L0,0z"/><path fill="#ffffff" stroke="#000000" transform="translate(-17.5,21.88)" stroke-width="2" id="shape9" d="M0,0L35,0L35,8.8L0,8.8L0,0z"/><text class="st3"><tspan x="77.8" y="23.5">Dati Utente</tspan></text></g><g transform="translate(583,2923.1)"><path fill="#ffffff" stroke="#000000" stroke-width="2" id="shape10" d="M0,0L234,0L234,35L0,35L0,0z"/><path fill="#ffffff" stroke="#000000" transform="translate(-17.5,4.38)" stroke-width="2" id="shape11" d="M0,0L35,0L35,8.8L0,8.8L0,0z"/><path fill="#ffffff" stroke="#000000" transform="translate(-17.5,21.88)" stroke-width="2" id="shape12" d="M0,0L35,0L35,8.8L0,8.8L0,0z"/><text class="st3"><tspan x="82.8" y="23.5">Dati Libro</tspan></text></g><g transform="translate(371,2958.1)"><path fill="none" stroke="#000000" transform="matrix(0,-1,1,0,11,31.8)" stroke-width="2" id="shape13" d="M0,0L31.8,0"/><path fill="none" stroke="#000000" transform="translate(0,46)" stroke-width="2" id="shape14" d="M0,0C0,-19,23,-19,23,0"/></g><g transform="translate(692,2958.1)"><path fill="none" stroke="#000000" transform="matrix(0,-1,1,0,11,31.8)" stroke-width="2" id="shape15" d="M0,0L31.8,0"/><path fill="none" stroke="#000000" transform="translate(0,46)" stroke-width="2" id="shape16" d="M0,0C0,-19,23,-19,23,0"/></g><g transform="matrix(0.99,0.13,-0.13,0.99,386,3005.1)" id="shape17"><path fill="none" stroke="#000000" stroke-dasharray="11,5" stroke-width="2" d="M0,0L101.6,0"/><path fill="#000000" stroke="#000000" stroke-linecap="round" stroke-width="1" d="M114,0L99.3,-8.5C100.7,-6,101.6,-3.1,101.6,0C101.6,3.1,100.7,6,99.3,8.5L114,0"/></g><g transform="matrix(-0.99,0.1,-0.1,-0.99,703,3001.1)" id="shape18"><path fill="none" stroke="#000000" stroke-dasharray="11,5" stroke-width="2" d="M0,0L169.6,0"/><path fill="#000000" stroke="#000000" stroke-linecap="round" stroke-width="1" d="M182,0L167.3,-8.5C168.7,-6,169.6,-3.1,169.6,0C169.6,3.1,168.7,6,167.3,8.5L182,0"/></g><g transform="translate(370.5,2870.1)"><path fill="none" stroke="#000000" transform="matrix(0,-1,1,0,11.2,54.3)" stroke-width="2" id="shape19" d="M0,0L31.8,0"/><path fill="#d7d7d7" stroke="#000000" stroke-width="2" id="shape20" d="M0,11.5C0,5.1,5.1,0,11.5,0C17.9,0,23,5.1,23,11.5C23,17.9,17.9,23,11.5,23C5.1,23,0,17.9,0,11.5z"/></g><g transform="translate(691,2870.1)"><path fill="none" stroke="#000000" transform="matrix(0,-1,1,0,11.2,54.3)" stroke-width="2" id="shape21" d="M0,0L31.8,0"/><path fill="#d7d7d7" stroke="#000000" stroke-width="2" id="shape22" d="M0,11.5C0,5.1,5.1,0,11.5,0C17.9,0,23,5.1,23,11.5C23,17.9,17.9,23,11.5,23C5.1,23,0,17.9,0,11.5z"/></g><g transform="translate(399.48,2801.26)" id="shape23"><text class="st1"><tspan x="5" y="16.8">p3</tspan></text></g><g transform="translate(659,2799.96)" id="shape24"><text class="st1"><tspan x="5" y="16.8">p2</tspan></text></g><g transform="translate(819.5,2985.42)" id="shape25"><text class="st1"><tspan x="5" y="16.8">p1</tspan></text></g><g transform="translate(919,2509.1)"><path fill="#ffffff" stroke="#000000" stroke-width="2" id="shape26" d="M0,0L234,0L234,61L0,61L0,0z"/><path fill="#ffffff" stroke="#000000" transform="translate(-30.5,7.63)" stroke-width="2" id="shape27" d="M0,0L61,0L61,15.3L0,15.3L0,0z"/><path fill="#ffffff" stroke="#000000" transform="translate(-30.5,38.13)" stroke-width="2" id="shape28" d="M0,0L61,0L61,15.3L0,15.3L0,0z"/><text class="st3"><tspan x="41.8" y="36.5">Gestione dell'Accesso</tspan></text></g><g transform="translate(265.12,2509.1)"><path fill="#ffffff" stroke="#000000" stroke-width="2" id="shape29" d="M0,0L234,0L234,61L0,61L0,0z"/><path fill="#ffffff" stroke="#000000" transform="translate(-30.5,7.63)" stroke-width="2" id="shape30" d="M0,0L61,0L61,15.3L0,15.3L0,0z"/><path fill="#ffffff" stroke="#000000" transform="translate(-30.5,38.13)" stroke-width="2" id="shape31" d="M0,0L61,0L61,15.3L0,15.3L0,0z"/><text class="st3"><tspan x="102.8" y="36.5">Profilo</tspan></text></g><g transform="translate(583,2509.1)"><path fill="#ffffff" stroke="#000000" stroke-width="2" id="shape32" d="M0,0L234,0L234,61L0,61L0,0z"/><path fill="#ffffff" stroke="#000000" transform="translate(-30.5,7.63)" stroke-width="2" id="shape33" d="M0,0L61,0L61,15.3L0,15.3L0,0z"/><path fill="#ffffff" stroke="#000000" transform="translate(-30.5,38.13)" stroke-width="2" id="shape34" d="M0,0L61,0L61,15.3L0,15.3L0,0z"/><text class="st3"><tspan x="109.8" y="36.5">Libro</tspan></text></g><g transform="translate(371,2569.1)"><path fill="none" stroke="#000000" transform="matrix(0,-1,1,0,11,31.8)" stroke-width="2" id="shape35" d="M0,0L31.8,0"/><path fill="none" stroke="#000000" transform="translate(0,46)" stroke-width="2" id="shape36" d="M0,0C0,-19,23,-19,23,0"/></g><g transform="translate(361,2696.1)"><g><path fill="#ffffff" stroke="#000000" transform="translate(4,90.5)" stroke-width="2" id="shape37" d="M0,0L33,0L33,33L0,33L0,0z"/></g><g transform="translate(10,35.6)"><path fill="none" stroke="#000000" transform="matrix(0,-1,1,0,11.2,54.3)" stroke-width="2" id="shape38" d="M0,0L31.8,0"/><path fill="#d7d7d7" stroke="#000000" stroke-width="2" id="shape39" d="M0,11.5C0,5.1,5.1,0,11.5,0C17.9,0,23,5.1,23,11.5C23,17.9,17.9,23,11.5,23C5.1,23,0,17.9,0,11.5z"/></g></g><g transform="matrix(0.01,1,-1,0.01,381.5,2615.1)" id="shape40"><path fill="none" stroke="#000000" stroke-dasharray="11,5" stroke-width="2" d="M0,0L104.2,0"/><path fill="#000000" stroke="#000000" stroke-linecap="round" stroke-width="1" d="M116.6,0L101.9,-8.5C103.4,-6,104.2,-3.1,104.2,0C104.2,3.1,103.4,6,101.9,8.5L116.6,0"/></g><g transform="translate(681,2696.1)"><g><path fill="#ffffff" stroke="#000000" transform="translate(4,90.5)" stroke-width="2" id="shape41" d="M0,0L33,0L33,33L0,33L0,0z"/></g><g transform="translate(10,35.6)"><path fill="none" stroke="#000000" transform="matrix(0,-1,1,0,11.2,54.3)" stroke-width="2" id="shape42" d="M0,0L31.8,0"/><path fill="#d7d7d7" stroke="#000000" stroke-width="2" id="shape43" d="M0,11.5C0,5.1,5.1,0,11.5,0C17.9,0,23,5.1,23,11.5C23,17.9,17.9,23,11.5,23C5.1,23,0,17.9,0,11.5z"/></g></g><path fill="none" stroke="#000000" transform="matrix(-0.01,-1,1,-0.01,382.3,2870.1)" stroke-width="2" id="shape44" d="M0,0L50.5,0"/><path fill="none" stroke="#000000" transform="matrix(-0.02,-1,1,-0.02,702.8,2870.1)" stroke-width="2" id="shape45" d="M0,0L50.5,0"/><g transform="translate(691,2569.1)"><path fill="none" stroke="#000000" transform="matrix(0,-1,1,0,11,31.8)" stroke-width="2" id="shape46" d="M0,0L31.8,0"/><path fill="none" stroke="#000000" transform="translate(0,46)" stroke-width="2" id="shape47" d="M0,0C0,-19,23,-19,23,0"/></g><g transform="matrix(0.01,1,-1,0.01,701.5,2615.1)" id="shape48"><path fill="none" stroke="#000000" stroke-dasharray="11,5" stroke-width="2" d="M0,0L104.2,0"/><path fill="#000000" stroke="#000000" stroke-linecap="round" stroke-width="1" d="M116.6,0L101.9,-8.5C103.4,-6,104.2,-3.1,104.2,0C104.2,3.1,103.4,6,101.9,8.5L116.6,0"/></g><g transform="translate(829.25,3004.85)"><g transform="matrix(0,1,-1,0,123.5,0)"><path fill="#ffffff" stroke="#000000" transform="translate(4,90.5)" stroke-width="2" id="shape49" d="M0,0L33,0L33,33L0,33L0,0z"/></g><g transform="matrix(-0,1,-1,-0,87.9,10)"><path fill="none" stroke="#000000" transform="matrix(0,-1,1,0,11.2,54.3)" stroke-width="2" id="shape50" d="M0,0L31.8,0"/><path fill="#d7d7d7" stroke="#000000" stroke-width="2" id="shape51" d="M0,11.5C0,5.1,5.1,0,11.5,0C17.9,0,23,5.1,23,11.5C23,17.9,17.9,23,11.5,23C5.1,23,0,17.9,0,11.5z"/></g></g><path fill="none" stroke="#000000" transform="matrix(1,-0.01,0.01,1,523,3029.3)" stroke-width="2" id="shape52" d="M0,0L306.3,0"/><g transform="translate(1024.5,2569.1)"><path fill="none" stroke="#000000" transform="matrix(0,-1,1,0,11,31.8)" stroke-width="2" id="shape53" d="M0,0L31.8,0"/><path fill="none" stroke="#000000" transform="translate(0,46)" stroke-width="2" id="shape54" d="M0,0C0,-19,23,-19,23,0"/></g><g transform="translate(371,2456.1)"><path fill="none" stroke="#000000" transform="matrix(0,-1,1,0,11.2,54.3)" stroke-width="2" id="shape55" d="M0,0L31.8,0"/><path fill="#d7d7d7" stroke="#000000" stroke-width="2" id="shape56" d="M0,11.5C0,5.1,5.1,0,11.5,0C17.9,0,23,5.1,23,11.5C23,17.9,17.9,23,11.5,23C5.1,23,0,17.9,0,11.5z"/></g><g transform="translate(688.5,2456.1)"><path fill="none" stroke="#000000" transform="matrix(0,-1,1,0,11.2,54.3)" stroke-width="2" id="shape57" d="M0,0L31.8,0"/><path fill="#d7d7d7" stroke="#000000" stroke-width="2" id="shape58" d="M0,11.5C0,5.1,5.1,0,11.5,0C17.9,0,23,5.1,23,11.5C23,17.9,17.9,23,11.5,23C5.1,23,0,17.9,0,11.5z"/></g><g transform="translate(26.48,1780.4)" id="shape59"><path fill="#ffffff" d="M0,0L0,478L1178.5,478L1178.5,100.6L446.8,100.6L446.8,0L0,0z"/><path fill="none" stroke="#000000" d="M0,0L0,478L1178.5,478L1178.5,100.6L446.8,100.6L446.8,0L0,0zM446.8,100.6L0,100.6"/><text class="st1"><tspan x="183.3" y="40.3">«Subsystem» </tspan><tspan x="129.3" class="st2" y="63.3">Gestore delle Richieste</tspan></text></g><g transform="translate(1024.5,2456.1)"><path fill="none" stroke="#000000" transform="matrix(0,-1,1,0,11.2,54.3)" stroke-width="2" id="shape60" d="M0,0L31.8,0"/><path fill="#d7d7d7" stroke="#000000" stroke-width="2" id="shape61" d="M0,11.5C0,5.1,5.1,0,11.5,0C17.9,0,23,5.1,23,11.5C23,17.9,17.9,23,11.5,23C5.1,23,0,17.9,0,11.5z"/></g><g transform="translate(265,2123.4)"><path fill="#ffffff" stroke="#000000" stroke-width="2" id="shape62" d="M0,0L892,0L892,35L0,35L0,0z"/><path fill="#ffffff" stroke="#000000" transform="translate(-17.5,4.38)" stroke-width="2" id="shape63" d="M0,0L35,0L35,8.8L0,8.8L0,0z"/><path fill="#ffffff" stroke="#000000" transform="translate(-17.5,21.88)" stroke-width="2" id="shape64" d="M0,0L35,0L35,8.8L0,8.8L0,0z"/><text class="st3"><tspan x="358.8" y="23.5">Elaborazione Richieste</tspan></text></g><g transform="translate(476,1989.9)"><path fill="#ffffff" stroke="#000000" stroke-width="2" id="shape65" d="M0,0L672,0L672,35L0,35L0,0z"/><path fill="#ffffff" stroke="#000000" transform="translate(-17.5,4.38)" stroke-width="2" id="shape66" d="M0,0L35,0L35,8.8L0,8.8L0,0z"/><path fill="#ffffff" stroke="#000000" transform="translate(-17.5,21.88)" stroke-width="2" id="shape67" d="M0,0L35,0L35,8.8L0,8.8L0,0z"/><text class="st3"><tspan x="279.8" y="23.5">Comunicazione</tspan></text></g><path fill="#ffffff" stroke="#000000" transform="translate(1019.5,2240.4)" stroke-width="2" id="shape68" d="M0,0L33,0L33,33L0,33L0,0z"/><g transform="translate(1055,2234.72)" id="shape69"><text class="st1"><tspan x="5" y="16.8">p1</tspan></text></g><g transform="translate(1024.5,2274.4)"><path fill="none" stroke="#000000" transform="matrix(0,-1,1,0,11,31.8)" stroke-width="2" id="shape70" d="M0,0L31.8,0"/><path fill="none" stroke="#000000" transform="translate(0,46)" stroke-width="2" id="shape71" d="M0,0C0,-19,23,-19,23,0"/></g><g transform="matrix(0,1,-1,0,1036,2324.4)" id="shape72"><path fill="none" stroke="#000000" stroke-dasharray="11,5" stroke-width="2" d="M0,0L119.3,0"/><path fill="#000000" stroke="#000000" stroke-linecap="round" stroke-width="1" d="M131.7,0L117,-8.5C118.5,-6,119.3,-3.1,119.3,0C119.3,3.1,118.5,6,117,8.5L131.7,0"/></g><path fill="#ffffff" stroke="#000000" transform="translate(683.5,2240.4)" stroke-width="2" id="shape73" d="M0,0L33,0L33,33L0,33L0,0z"/><g transform="translate(688.5,2274.4)"><path fill="none" stroke="#000000" transform="matrix(0,-1,1,0,11,31.8)" stroke-width="2" id="shape74" d="M0,0L31.8,0"/><path fill="none" stroke="#000000" transform="translate(0,46)" stroke-width="2" id="shape75" d="M0,0C0,-19,23,-19,23,0"/></g><g transform="matrix(0,1,-1,0,700,2324.4)" id="shape76"><path fill="none" stroke="#000000" stroke-dasharray="11,5" stroke-width="2" d="M0,0L119.3,0"/><path fill="#000000" stroke="#000000" stroke-linecap="round" stroke-width="1" d="M131.7,0L117,-8.5C118.5,-6,119.3,-3.1,119.3,0C119.3,3.1,118.5,6,117,8.5L131.7,0"/></g><path fill="#ffffff" stroke="#000000" transform="translate(365.62,2240.4)" stroke-width="2" id="shape77" d="M0,0L33,0L33,33L0,33L0,0z"/><g transform="translate(370.62,2274.4)"><path fill="none" stroke="#000000" transform="matrix(0,-1,1,0,11,31.8)" stroke-width="2" id="shape78" d="M0,0L31.8,0"/><path fill="none" stroke="#000000" transform="translate(0,46)" stroke-width="2" id="shape79" d="M0,0C0,-19,23,-19,23,0"/></g><g transform="matrix(0,1,-1,0,382.1,2324.4)" id="shape80"><path fill="none" stroke="#000000" stroke-dasharray="11,5" stroke-width="2" d="M0,0L119.3,0"/><path fill="#000000" stroke="#000000" stroke-linecap="round" stroke-width="1" d="M131.7,0L117,-8.5C118.5,-6,119.3,-3.1,119.3,0C119.3,3.1,118.5,6,117,8.5L131.7,0"/></g><g transform="translate(720,2234.72)" id="shape81"><text class="st1"><tspan x="5" y="16.8">p2</tspan></text></g><g transform="translate(401,2234.72)" id="shape82"><text class="st1"><tspan x="5" y="16.8">p3</tspan></text></g><g transform="translate(370.62,2158.4)"><path fill="none" stroke="#000000" transform="matrix(0,-1,1,0,11,31.8)" stroke-width="2" id="shape83" d="M0,0L31.8,0"/><path fill="none" stroke="#000000" transform="translate(0,46)" stroke-width="2" id="shape84" d="M0,0C0,-19,23,-19,23,0"/></g><path fill="none" stroke="#000000" transform="matrix(0,-1,1,0,382.6,2240.4)" stroke-width="2" id="shape85" d="M0,0L37,0"/><g transform="translate(687.62,2159.4)"><path fill="none" stroke="#000000" transform="matrix(0,-1,1,0,11,31.8)" stroke-width="2" id="shape86" d="M0,0L31.8,0"/><path fill="none" stroke="#000000" transform="translate(0,46)" stroke-width="2" id="shape87" d="M0,0C0,-19,23,-19,23,0"/></g><path fill="none" stroke="#000000" transform="matrix(0,-1,1,0,699.6,2241.4)" stroke-width="2" id="shape88" d="M0,0L37,0"/><g transform="translate(1023.62,2159.4)"><path fill="none" stroke="#000000" transform="matrix(0,-1,1,0,11,31.8)" stroke-width="2" id="shape89" d="M0,0L31.8,0"/><path fill="none" stroke="#000000" transform="translate(0,46)" stroke-width="2" id="shape90" d="M0,0C0,-19,23,-19,23,0"/></g><path fill="none" stroke="#000000" transform="matrix(0,-1,1,0,1035.6,2241.4)" stroke-width="2" id="shape91" d="M0,0L37,0"/><g transform="translate(683.5,2068.11)"><path fill="none" stroke="#000000" transform="matrix(0,-1,1,0,11.2,54.3)" stroke-width="2" id="shape92" d="M0,0L31.8,0"/><path fill="#d7d7d7" stroke="#000000" stroke-width="2" id="shape93" d="M0,11.5C0,5.1,5.1,0,11.5,0C17.9,0,23,5.1,23,11.5C23,17.9,17.9,23,11.5,23C5.1,23,0,17.9,0,11.5z"/></g><g transform="matrix(-1,0,0,-1,838,2079.7)"><path fill="none" stroke="#000000" transform="matrix(0,-1,1,0,11.2,54.3)" stroke-width="2" id="shape94" d="M0,0L31.8,0"/><path fill="#d7d7d7" stroke="#000000" stroke-width="2" id="shape95" d="M0,11.5C0,5.1,5.1,0,11.5,0C17.9,0,23,5.1,23,11.5C23,17.9,17.9,23,11.5,23C5.1,23,0,17.9,0,11.5z"/></g><g transform="translate(683.5,2025.4)"><path fill="none" stroke="#000000" transform="matrix(0,-1,1,0,11,31.8)" stroke-width="2" id="shape96" d="M0,0L31.8,0"/><path fill="none" stroke="#000000" transform="translate(0,46)" stroke-width="2" id="shape97" d="M0,0C0,-19,23,-19,23,0"/></g><g transform="matrix(-1,-0,0,-1,837.8,2122.4)"><path fill="none" stroke="#000000" transform="matrix(0,-1,1,0,11,31.8)" stroke-width="2" id="shape98" d="M0,0L31.8,0"/><path fill="none" stroke="#000000" transform="translate(0,46)" stroke-width="2" id="shape99" d="M0,0C0,-19,23,-19,23,0"/></g><g transform="translate(815,1935.4)"><path fill="none" stroke="#000000" transform="matrix(0,-1,1,0,11.2,54.3)" stroke-width="2" id="shape100" d="M0,0L31.8,0"/><path fill="#d7d7d7" stroke="#000000" stroke-width="2" id="shape101" d="M0,11.5C0,5.1,5.1,0,11.5,0C17.9,0,23,5.1,23,11.5C23,17.9,17.9,23,11.5,23C5.1,23,0,17.9,0,11.5z"/></g><g transform="translate(805,1773.4)"><g><path fill="#ffffff" stroke="#000000" transform="translate(4,90.5)" stroke-width="2" id="shape102" d="M0,0L33,0L33,33L0,33L0,0z"/></g><g transform="translate(10,35.6)"><path fill="none" stroke="#000000" transform="matrix(0,-1,1,0,11.2,54.3)" stroke-width="2" id="shape103" d="M0,0L31.8,0"/><path fill="#d7d7d7" stroke="#000000" stroke-width="2" id="shape104" d="M0,11.5C0,5.1,5.1,0,11.5,0C17.9,0,23,5.1,23,11.5C23,17.9,17.9,23,11.5,23C5.1,23,0,17.9,0,11.5z"/></g></g><path fill="none" stroke="#000000" transform="matrix(0,-1,1,0,826.8,1935.4)" stroke-width="2" id="shape105" d="M0,0L37,0"/><g transform="translate(905,2615.79)"><path fill="none" stroke="#000000" transform="matrix(0,1,-1,0,129.7,0)" stroke-dasharray="11,5" stroke-width="2" id="shape106" d="M0,0L188.6,0"/><path fill="none" stroke="#000000" transform="translate(0,188.61)" stroke-dasharray="11,5" stroke-width="2" id="shape107" d="M0,0L129.7,0"/><g transform="matrix(0,1,-1,0,0.4,188.6)" id="shape108"><path fill="none" stroke="#000000" stroke-dasharray="11,5" stroke-width="2" d="M0,0L198.1,0"/><path fill="#000000" stroke="#000000" stroke-linecap="round" stroke-width="1" d="M210.5,0L195.8,-8.5C197.2,-6,198.1,-3.1,198.1,0C198.1,3.1,197.2,6,195.8,8.5L210.5,0"/></g></g><g transform="translate(1059,2979.35)" id="shape109"><path fill="none" stroke="#000000" d="M0,0L0,90L260,90L260,18.9L98.6,18.9L98.6,0L0,0zM98.6,18.9L0,18.9"/><text class="st1"><tspan x="89" y="47.5">«Subsystem» </tspan><tspan x="101" class="st2" y="70.5">Analisi</tspan></text></g><g transform="matrix(0,1,-1,0,1059,3014.8)"><path fill="none" stroke="#000000" transform="matrix(0,-1,1,0,11,31.8)" stroke-width="2" id="shape110" d="M0,0L31.8,0"/><path fill="none" stroke="#000000" transform="translate(0,46)" stroke-width="2" id="shape111" d="M0,0C0,-19,23,-19,23,0"/></g><g transform="matrix(-1,0,0,-1,1013,3026.7)" id="shape112"><path fill="none" stroke="#000000" stroke-dasharray="11,5" stroke-width="2" d="M0,0L83.4,0"/><path fill="#000000" stroke="#000000" stroke-linecap="round" stroke-width="1" d="M95.9,0L81.2,-8.5C82.6,-6,83.4,-3.1,83.4,0C83.4,3.1,82.6,6,81.2,8.5L95.9,0"/></g><g transform="translate(465,2456.1)"><path fill="none" stroke-opacity="0.2" stroke="#000000" transform="matrix(0,-1,1,0,11.2,54.3)" stroke-width="2" id="shape113" d="M0,0L31.8,0"/><path fill="#d7d7d7" stroke-opacity="0.2" stroke="#000000" stroke-width="2" id="shape114" d="M0,11.5C0,5.1,5.1,0,11.5,0C17.9,0,23,5.1,23,11.5C23,17.9,17.9,23,11.5,23C5.1,23,0,17.9,0,11.5z"/></g><g transform="matrix(-1,-0,0,-1,642.3,2510.4)"><path fill="none" stroke-opacity="0.2" stroke="#000000" transform="matrix(0,-1,1,0,11,31.8)" stroke-width="2" id="shape115" d="M0,0L31.8,0"/><path fill="none" stroke-opacity="0.2" stroke="#000000" transform="translate(0,46)" stroke-width="2" id="shape116" d="M0,0C0,-19,23,-19,23,0"/></g><g transform="translate(476.77,2400.4)"><g transform="matrix(0,1,-1,0,0,0)" id="shape117"><path fill="none" stroke-opacity="0.2" stroke="#000000" stroke-dasharray="11,5" stroke-width="2" d="M0,0L43.3,0"/><path fill="#000000" stroke-opacity="0.2" fill-opacity="0.2" stroke="#000000" stroke-linecap="round" stroke-width="1" d="M55.7,0L41,-8.5C42.5,-6,43.3,-3.1,43.3,0C43.3,3.1,42.5,6,41,8.5L55.7,0"/></g><path fill="none" stroke-opacity="0.2" stroke="#000000" stroke-dasharray="11,5" stroke-width="2" id="shape118" d="M0,0L154.2,0"/><path fill="none" stroke-opacity="0.2" stroke="#000000" transform="matrix(0,-1,1,0,154.2,60)" stroke-dasharray="11,5" stroke-width="2" id="shape119" d="M0,0L60,0"/></g><g transform="translate(457.75,2980.42)" id="shape120"><text class="st1"><tspan x="9.3" y="16.8">Query Performer</tspan></text></g><g transform="translate(382.48,2870.11)" id="shape121"><text class="st1"><tspan x="19.3" y="16.8">Query Utente</tspan></text></g><g transform="translate(586,2870.11)" id="shape122"><text class="st1"><tspan x="23.3" y="16.8">Query Libro</tspan></text></g><g transform="translate(703,2456.11)" id="shape123"><text class="st1"><tspan x="15.3" y="16.8">Gestione Libro</tspan></text></g><g transform="translate(253,2456.11)" id="shape124"><text class="st1"><tspan x="12.3" y="16.8">Gestione Profilo</tspan></text></g><g transform="translate(1036.5,2456.11)" id="shape125"><text class="st1"><tspan x="39.3" y="6.8">Verfica </tspan><tspan x="16.3" y="26.8">Autorizzazione</tspan></text></g><g transform="translate(830,2064.12)" id="shape126"><text class="st1"><tspan x="18.3" y="16.8">Invia Risposta</tspan></text></g><g transform="translate(565.75,2064.12)" id="shape127"><text class="st1"><tspan x="8.3" y="16.8">Elabora Richiesta</tspan></text></g><g transform="translate(830,1935.41)" id="shape128"><text class="st1"><tspan x="14.3" y="6.8">Comunicazione </tspan><tspan x="23.3" y="26.8">con Android</tspan></text></g><g transform="translate(359,1163.7)" id="shape129"><path fill="#ffffff" d="M0,0L0,478L846,478L846,100.6L320.8,100.6L320.8,0L0,0z"/><path fill="none" stroke="#000000" d="M0,0L0,478L846,478L846,100.6L320.8,100.6L320.8,0L0,0zM320.8,100.6L0,100.6"/><text class="st1"><tspan x="119.9" y="40.3">«Subsystem» </tspan><tspan x="65.9" class="st2" y="63.3">Gestore delle Richieste</tspan></text></g><g transform="translate(844,1879.9)" id="shape130"><text class="st1"><tspan x="5" y="16.8">p4</tspan></text></g><path fill="#ffffff" stroke="#000000" transform="translate(809.5,1624.4)" stroke-width="2" id="shape131" d="M0,0L33,0L33,33L0,33L0,0z"/><g transform="translate(814.5,1658.4)"><path fill="none" stroke="#000000" transform="matrix(0,-1,1,0,11,31.8)" stroke-width="2" id="shape132" d="M0,0L31.8,0"/><path fill="none" stroke="#000000" transform="translate(0,46)" stroke-width="2" id="shape133" d="M0,0C0,-19,23,-19,23,0"/></g><g transform="translate(846,1618.72)" id="shape134"><text class="st1"><tspan x="5" y="16.8">p3</tspan></text></g><g transform="translate(813.62,1543.4)"><path fill="none" stroke="#000000" transform="matrix(0,-1,1,0,11,31.8)" stroke-width="2" id="shape135" d="M0,0L31.8,0"/><path fill="none" stroke="#000000" transform="translate(0,46)" stroke-width="2" id="shape136" d="M0,0C0,-19,23,-19,23,0"/></g><path fill="none" stroke="#000000" transform="matrix(0,-1,1,0,825.6,1625.4)" stroke-width="2" id="shape137" d="M0,0L37,0"/><g transform="matrix(0,1,-1,0,764,1111)" id="shape138"><path fill="none" stroke="#000000" stroke-dasharray="11,5" stroke-width="2" d="M0,0L70.3,0"/><path fill="#000000" stroke="#000000" stroke-linecap="round" stroke-width="1" d="M82.7,0L68,-8.5C69.5,-6,70.3,-3.1,70.3,0C70.3,3.1,69.5,6,68,8.5L82.7,0"/></g><g transform="translate(480,1506.7)"><path fill="#ffffff" stroke="#000000" stroke-width="2" id="shape139" d="M0,0L688,0L688,35L0,35L0,0z"/><path fill="#ffffff" stroke="#000000" transform="translate(-17.5,4.38)" stroke-width="2" id="shape140" d="M0,0L35,0L35,8.8L0,8.8L0,0z"/><path fill="#ffffff" stroke="#000000" transform="translate(-17.5,21.88)" stroke-width="2" id="shape141" d="M0,0L35,0L35,8.8L0,8.8L0,0z"/><text class="st3"><tspan x="287.8" y="23.5">Comunicazione</tspan></text></g><g transform="translate(482.5,1376.2)"><path fill="#ffffff" stroke="#000000" stroke-width="2" id="shape142" d="M0,0L688,0L688,35L0,35L0,0z"/><path fill="#ffffff" stroke="#000000" transform="translate(-17.5,4.38)" stroke-width="2" id="shape143" d="M0,0L35,0L35,8.8L0,8.8L0,0z"/><path fill="#ffffff" stroke="#000000" transform="translate(-17.5,21.88)" stroke-width="2" id="shape144" d="M0,0L35,0L35,8.8L0,8.8L0,0z"/><text class="st3"><tspan x="297.8" y="23.5">Elaborazione</tspan></text></g><g transform="translate(752.38,1453.41)"><path fill="none" stroke="#000000" transform="matrix(0,-1,1,0,11.2,54.3)" stroke-width="2" id="shape145" d="M0,0L31.8,0"/><path fill="#d7d7d7" stroke="#000000" stroke-width="2" id="shape146" d="M0,11.5C0,5.1,5.1,0,11.5,0C17.9,0,23,5.1,23,11.5C23,17.9,17.9,23,11.5,23C5.1,23,0,17.9,0,11.5z"/></g><g transform="matrix(-1,0,0,-1,906.9,1465)"><path fill="none" stroke="#000000" transform="matrix(0,-1,1,0,11.2,54.3)" stroke-width="2" id="shape147" d="M0,0L31.8,0"/><path fill="#d7d7d7" stroke="#000000" stroke-width="2" id="shape148" d="M0,11.5C0,5.1,5.1,0,11.5,0C17.9,0,23,5.1,23,11.5C23,17.9,17.9,23,11.5,23C5.1,23,0,17.9,0,11.5z"/></g><g transform="translate(752.38,1410.7)"><path fill="none" stroke="#000000" transform="matrix(0,-1,1,0,11,31.8)" stroke-width="2" id="shape149" d="M0,0L31.8,0"/><path fill="none" stroke="#000000" transform="translate(0,46)" stroke-width="2" id="shape150" d="M0,0C0,-19,23,-19,23,0"/></g><g transform="matrix(-1,-0,0,-1,906.7,1507.7)"><path fill="none" stroke="#000000" transform="matrix(0,-1,1,0,11,31.8)" stroke-width="2" id="shape151" d="M0,0L31.8,0"/><path fill="none" stroke="#000000" transform="translate(0,46)" stroke-width="2" id="shape152" d="M0,0C0,-19,23,-19,23,0"/></g><g transform="translate(898.88,1449.42)" id="shape153"><text class="st1"><tspan x="14.3" y="16.8">Ricevi Risposta</tspan></text></g><g transform="translate(634.63,1449.42)" id="shape154"><text class="st1"><tspan x="17.3" y="16.8">Invia Richiesta</tspan></text></g><g transform="translate(752.25,1322.1)"><path fill="none" stroke="#000000" transform="matrix(0,-1,1,0,11.2,54.3)" stroke-width="2" id="shape155" d="M0,0L31.8,0"/><path fill="#d7d7d7" stroke="#000000" stroke-width="2" id="shape156" d="M0,11.5C0,5.1,5.1,0,11.5,0C17.9,0,23,5.1,23,11.5C23,17.9,17.9,23,11.5,23C5.1,23,0,17.9,0,11.5z"/></g><g transform="translate(742.25,1160.1)"><g><path fill="#ffffff" stroke="#000000" transform="translate(4,90.5)" stroke-width="2" id="shape157" d="M0,0L33,0L33,33L0,33L0,0z"/></g><g transform="translate(10,35.6)"><path fill="none" stroke="#000000" transform="matrix(0,-1,1,0,11.2,54.3)" stroke-width="2" id="shape158" d="M0,0L31.8,0"/><path fill="#d7d7d7" stroke="#000000" stroke-width="2" id="shape159" d="M0,11.5C0,5.1,5.1,0,11.5,0C17.9,0,23,5.1,23,11.5C23,17.9,17.9,23,11.5,23C5.1,23,0,17.9,0,11.5z"/></g></g><path fill="none" stroke="#000000" transform="matrix(-0,-1,1,-0,764,1322.1)" stroke-width="2" id="shape160" d="M0,0L37,0"/><g transform="translate(634.63,1322.11)" id="shape161"><text class="st1"><tspan x="9.3" y="16.8">Genera Richiesta</tspan></text></g><g transform="translate(781.25,1266.6)" id="shape162"><text class="st1"><tspan x="5" y="16.8">p2</tspan></text></g><g transform="matrix(-1,-0,0,-1,906.7,1376.4)"><path fill="none" stroke="#000000" transform="matrix(0,-1,1,0,11,31.8)" stroke-width="2" id="shape163" d="M0,0L31.8,0"/><path fill="none" stroke="#000000" transform="translate(0,46)" stroke-width="2" id="shape164" d="M0,0C0,-19,23,-19,23,0"/></g><path fill="none" stroke="#000000" transform="matrix(0,-1,1,0,895.6,1333.7)" stroke-width="2" id="shape165" d="M0,0L50.3,0"/><g transform="translate(912.88,1264.89)" id="shape166"><text class="st1"><tspan x="5" y="16.8">p1</tspan></text></g><g transform="translate(359,246)" id="shape167"><path fill="#ffffff" d="M0,0L0,801L846,801L846,168.6L320.8,168.6L320.8,0L0,0z"/><path fill="none" stroke="#000000" d="M0,0L0,801L846,801L846,168.6L320.8,168.6L320.8,0L0,0zM320.8,168.6L0,168.6"/><text class="st1"><tspan x="119.9" y="72.3">«Subsystem» </tspan><tspan x="143.9" class="st2" y="95.3">GUI</tspan></text></g><g transform="translate(482.5,899)"><path fill="#ffffff" stroke="#000000" stroke-width="2" id="shape168" d="M0,0L688,0L688,35L0,35L0,0z"/><path fill="#ffffff" stroke="#000000" transform="translate(-17.5,4.38)" stroke-width="2" id="shape169" d="M0,0L35,0L35,8.8L0,8.8L0,0z"/><path fill="#ffffff" stroke="#000000" transform="translate(-17.5,21.88)" stroke-width="2" id="shape170" d="M0,0L35,0L35,8.8L0,8.8L0,0z"/><text class="st3"><tspan x="310.8" y="23.5">Invio Dati</tspan></text></g><g transform="translate(877.88,1203.65)"><g transform="translate(-4,-45.27)"><path fill="#ffffff" stroke="#000000" transform="translate(4,91.5)" stroke-width="2" id="shape171" d="M0,0L33,0L33,33L0,33L0,0z"/></g><g transform="matrix(-1,-0,0,-1,27.8,46.1)"><path fill="none" stroke="#000000" transform="matrix(0,-1,1,0,11,31.8)" stroke-width="2" id="shape172" d="M0,0L31.8,0"/><path fill="none" stroke="#000000" transform="translate(0,46)" stroke-width="2" id="shape173" d="M0,0C0,-19,23,-19,23,0"/></g></g><g transform="translate(783.25,1022.6)" id="shape174"><text class="st1"><tspan x="5" y="16.8">p2</tspan></text></g><g transform="translate(913.88,1020.89)" id="shape175"><text class="st1"><tspan x="5" y="16.8">p1</tspan></text></g><g transform="translate(748.25,1030.6)"><path fill="#ffffff" stroke="#000000" stroke-width="2" id="shape176" d="M0,0L33,0L33,33L0,33L0,0z"/><g transform="translate(5,33.4)"><path fill="none" stroke="#000000" transform="matrix(0,-1,1,0,11,31.8)" stroke-width="2" id="shape177" d="M0,0L31.8,0"/><path fill="none" stroke="#000000" transform="translate(0,46)" stroke-width="2" id="shape178" d="M0,0C0,-19,23,-19,23,0"/></g></g><g transform="translate(878.88,1029.89)"><g transform="matrix(-1,0,-0,-1,27,85.2)"><path fill="none" stroke="#000000" transform="matrix(0,-1,1,0,11.2,54.3)" stroke-width="2" id="shape179" d="M0,0L31.8,0"/><path fill="#d7d7d7" stroke="#000000" stroke-width="2" id="shape180" d="M0,11.5C0,5.1,5.1,0,11.5,0C17.9,0,23,5.1,23,11.5C23,17.9,17.9,23,11.5,23C5.1,23,0,17.9,0,11.5z"/></g><path fill="#ffffff" stroke="#000000" stroke-width="2" id="shape181" d="M0,0L33,0L33,33L0,33L0,0z"/></g><g transform="matrix(0,-1,1,0,894.1,1205)" id="shape182"><path fill="none" stroke="#000000" stroke-dasharray="11,5" stroke-width="2" d="M0,0L74.4,0"/><path fill="#000000" stroke="#000000" stroke-linecap="round" stroke-width="1" d="M86.9,0L72.2,-8.5C73.6,-6,74.4,-3.1,74.4,0C74.4,3.1,73.6,6,72.2,8.5L86.9,0"/></g><g transform="matrix(-1,0,-0,-1,907.9,988.1)"><path fill="none" stroke="#000000" transform="matrix(0,-1,1,0,11.2,54.3)" stroke-width="2" id="shape183" d="M0,0L31.8,0"/><path fill="#d7d7d7" stroke="#000000" stroke-width="2" id="shape184" d="M0,11.5C0,5.1,5.1,0,11.5,0C17.9,0,23,5.1,23,11.5C23,17.9,17.9,23,11.5,23C5.1,23,0,17.9,0,11.5z"/></g><g transform="translate(754.25,933.85)"><path fill="none" stroke="#000000" transform="matrix(0,-1,1,0,11,31.8)" stroke-width="2" id="shape185" d="M0,0L31.8,0"/><path fill="none" stroke="#000000" transform="translate(0,46)" stroke-width="2" id="shape186" d="M0,0C0,-19,23,-19,23,0"/></g><path fill="none" stroke="#000000" transform="matrix(0,-1,1,0,765.3,1030.6)" stroke-width="2" id="shape187" d="M0,0L51.6,0"/><path fill="none" stroke="#000000" transform="matrix(0.01,-1,1,0.01,895.9,1029.9)" stroke-width="2" id="shape188" d="M0,0L41.7,0"/><g transform="translate(577.23,846)"><path fill="none" stroke="#000000" transform="matrix(0,-1,1,0,11.2,54.3)" stroke-width="2" id="shape189" d="M0,0L31.8,0"/><path fill="#d7d7d7" stroke="#000000" stroke-width="2" id="shape190" d="M0,11.5C0,5.1,5.1,0,11.5,0C17.9,0,23,5.1,23,11.5C23,17.9,17.9,23,11.5,23C5.1,23,0,17.9,0,11.5z"/></g><g transform="matrix(-1,-0,0,-1,1099.9,898.3)"><path fill="none" stroke="#000000" transform="matrix(0,-1,1,0,11,31.8)" stroke-width="2" id="shape191" d="M0,0L31.8,0"/><path fill="none" stroke="#000000" transform="translate(0,46)" stroke-width="2" id="shape192" d="M0,0C0,-19,23,-19,23,0"/></g><g transform="translate(688,437)"><path fill="#ffffff" stroke="#000000" stroke-width="2" id="shape193" d="M0,0L291.5,0L291.5,35L0,35L0,0z"/><path fill="#ffffff" stroke="#000000" transform="translate(-17.5,4.38)" stroke-width="2" id="shape194" d="M0,0L35,0L35,8.8L0,8.8L0,0z"/><path fill="#ffffff" stroke="#000000" transform="translate(-17.5,21.88)" stroke-width="2" id="shape195" d="M0,0L35,0L35,8.8L0,8.8L0,0z"/><text class="st3"><tspan x="97.5" y="23.5">Registrazione</tspan></text></g><g transform="translate(688,504.5)"><path fill="#ffffff" stroke="#000000" stroke-width="2" id="shape196" d="M0,0L291.5,0L291.5,35L0,35L0,0z"/><path fill="#ffffff" stroke="#000000" transform="translate(-17.5,4.38)" stroke-width="2" id="shape197" d="M0,0L35,0L35,8.8L0,8.8L0,0z"/><path fill="#ffffff" stroke="#000000" transform="translate(-17.5,21.88)" stroke-width="2" id="shape198" d="M0,0L35,0L35,8.8L0,8.8L0,0z"/><text class="st3"><tspan x="130.5" y="23.5">Login</tspan></text></g><g transform="translate(688,707)"><path fill="#ffffff" stroke="#000000" stroke-width="2" id="shape199" d="M0,0L291.5,0L291.5,35L0,35L0,0z"/><path fill="#ffffff" stroke="#000000" transform="translate(-17.5,4.38)" stroke-width="2" id="shape200" d="M0,0L35,0L35,8.8L0,8.8L0,0z"/><path fill="#ffffff" stroke="#000000" transform="translate(-17.5,21.88)" stroke-width="2" id="shape201" d="M0,0L35,0L35,8.8L0,8.8L0,0z"/><text class="st3"><tspan x="72.5" y="23.5">Registrazione Libro</tspan></text></g><g transform="translate(688,639.5)"><path fill="#ffffff" stroke="#000000" stroke-width="2" id="shape202" d="M0,0L291.5,0L291.5,35L0,35L0,0z"/><path fill="#ffffff" stroke="#000000" transform="translate(-17.5,4.38)" stroke-width="2" id="shape203" d="M0,0L35,0L35,8.8L0,8.8L0,0z"/><path fill="#ffffff" stroke="#000000" transform="translate(-17.5,21.88)" stroke-width="2" id="shape204" d="M0,0L35,0L35,8.8L0,8.8L0,0z"/><text class="st3"><tspan x="83.5" y="23.5">Libri in Possesso</tspan></text></g><g transform="translate(688,572)"><path fill="#ffffff" stroke="#000000" stroke-width="2" id="shape205" d="M0,0L291.5,0L291.5,35L0,35L0,0z"/><path fill="#ffffff" stroke="#000000" transform="translate(-17.5,4.38)" stroke-width="2" id="shape206" d="M0,0L35,0L35,8.8L0,8.8L0,0z"/><path fill="#ffffff" stroke="#000000" transform="translate(-17.5,21.88)" stroke-width="2" id="shape207" d="M0,0L35,0L35,8.8L0,8.8L0,0z"/><text class="st3"><tspan x="92.5" y="23.5">Raccolta Libro</tspan></text></g><g transform="matrix(0,1,-1,0,1032.5,713)"><path fill="none" stroke="#000000" transform="matrix(0,-1,1,0,11.2,54.3)" stroke-width="2" id="shape208" d="M0,0L31.8,0"/><path fill="#d7d7d7" stroke="#000000" stroke-width="2" id="shape209" d="M0,11.5C0,5.1,5.1,0,11.5,0C17.9,0,23,5.1,23,11.5C23,17.9,17.9,23,11.5,23C5.1,23,0,17.9,0,11.5z"/></g><g transform="matrix(0,1,-1,0,1032.5,645.5)"><path fill="none" stroke="#000000" transform="matrix(0,-1,1,0,11.2,54.3)" stroke-width="2" id="shape210" d="M0,0L31.8,0"/><path fill="#d7d7d7" stroke="#000000" stroke-width="2" id="shape211" d="M0,11.5C0,5.1,5.1,0,11.5,0C17.9,0,23,5.1,23,11.5C23,17.9,17.9,23,11.5,23C5.1,23,0,17.9,0,11.5z"/></g><g transform="matrix(0,1,-1,0,1032.5,578)"><path fill="none" stroke="#000000" transform="matrix(0,-1,1,0,11.2,54.3)" stroke-width="2" id="shape212" d="M0,0L31.8,0"/><path fill="#d7d7d7" stroke="#000000" stroke-width="2" id="shape213" d="M0,11.5C0,5.1,5.1,0,11.5,0C17.9,0,23,5.1,23,11.5C23,17.9,17.9,23,11.5,23C5.1,23,0,17.9,0,11.5z"/></g><g transform="matrix(0,1,-1,0,1032.5,510.5)"><path fill="none" stroke="#000000" transform="matrix(0,-1,1,0,11.2,54.3)" stroke-width="2" id="shape214" d="M0,0L31.8,0"/><path fill="#d7d7d7" stroke="#000000" stroke-width="2" id="shape215" d="M0,11.5C0,5.1,5.1,0,11.5,0C17.9,0,23,5.1,23,11.5C23,17.9,17.9,23,11.5,23C5.1,23,0,17.9,0,11.5z"/></g><g transform="matrix(0,1,-1,0,1032.5,443)"><path fill="none" stroke="#000000" transform="matrix(0,-1,1,0,11.2,54.3)" stroke-width="2" id="shape216" d="M0,0L31.8,0"/><path fill="#d7d7d7" stroke="#000000" stroke-width="2" id="shape217" d="M0,11.5C0,5.1,5.1,0,11.5,0C17.9,0,23,5.1,23,11.5C23,17.9,17.9,23,11.5,23C5.1,23,0,17.9,0,11.5z"/></g><g transform="matrix(-1,0,0,-1,1089,724.8)" id="shape218"><path fill="none" stroke="#000000" stroke-dasharray="11,5" stroke-width="2" d="M0,0L44.1,0"/><path fill="#000000" stroke="#000000" stroke-linecap="round" stroke-width="1" d="M56.5,0L41.8,-8.5C43.2,-6,44.1,-3.1,44.1,0C44.1,3.1,43.2,6,41.8,8.5L56.5,0"/></g><g transform="matrix(-1,0,0,-1,1089,657.3)" id="shape219"><path fill="none" stroke="#000000" stroke-dasharray="11,5" stroke-width="2" d="M0,0L44.1,0"/><path fill="#000000" stroke="#000000" stroke-linecap="round" stroke-width="1" d="M56.5,0L41.8,-8.5C43.2,-6,44.1,-3.1,44.1,0C44.1,3.1,43.2,6,41.8,8.5L56.5,0"/></g><g transform="matrix(-1,0,0,-1,1089,454.8)" id="shape220"><path fill="none" stroke="#000000" stroke-dasharray="11,5" stroke-width="2" d="M0,0L44.1,0"/><path fill="#000000" stroke="#000000" stroke-linecap="round" stroke-width="1" d="M56.5,0L41.8,-8.5C43.2,-6,44.1,-3.1,44.1,0C44.1,3.1,43.2,6,41.8,8.5L56.5,0"/></g><g transform="matrix(-1,0,0,-1,1089,522.3)" id="shape221"><path fill="none" stroke="#000000" stroke-dasharray="11,5" stroke-width="2" d="M0,0L44.1,0"/><path fill="#000000" stroke="#000000" stroke-linecap="round" stroke-width="1" d="M56.5,0L41.8,-8.5C43.2,-6,44.1,-3.1,44.1,0C44.1,3.1,43.2,6,41.8,8.5L56.5,0"/></g><g transform="matrix(-1,0,0,-1,1089,589.8)" id="shape222"><path fill="none" stroke="#000000" stroke-dasharray="11,5" stroke-width="2" d="M0,0L44.1,0"/><path fill="#000000" stroke="#000000" stroke-linecap="round" stroke-width="1" d="M56.5,0L41.8,-8.5C43.2,-6,44.1,-3.1,44.1,0C44.1,3.1,43.2,6,41.8,8.5L56.5,0"/></g><path fill="none" stroke="#000000" transform="matrix(0,-1,1,0,1089,850)" stroke-dasharray="11,5" stroke-width="2" id="shape223" d="M0,0L395.2,0"/><g transform="matrix(0,1,-1,0,689.3,443)"><path fill="none" stroke="#000000" transform="matrix(0,-1,1,0,11,31.8)" stroke-width="2" id="shape224" d="M0,0L31.8,0"/><path fill="none" stroke="#000000" transform="translate(0,46)" stroke-width="2" id="shape225" d="M0,0C0,-19,23,-19,23,0"/></g><g transform="matrix(0,1,-1,0,689.3,510.5)"><path fill="none" stroke="#000000" transform="matrix(0,-1,1,0,11,31.8)" stroke-width="2" id="shape226" d="M0,0L31.8,0"/><path fill="none" stroke="#000000" transform="translate(0,46)" stroke-width="2" id="shape227" d="M0,0C0,-19,23,-19,23,0"/></g><g transform="matrix(0,1,-1,0,689.3,578)"><path fill="none" stroke="#000000" transform="matrix(0,-1,1,0,11,31.8)" stroke-width="2" id="shape228" d="M0,0L31.8,0"/><path fill="none" stroke="#000000" transform="translate(0,46)" stroke-width="2" id="shape229" d="M0,0C0,-19,23,-19,23,0"/></g><g transform="matrix(0,1,-1,0,689.3,645.5)"><path fill="none" stroke="#000000" transform="matrix(0,-1,1,0,11,31.8)" stroke-width="2" id="shape230" d="M0,0L31.8,0"/><path fill="none" stroke="#000000" transform="translate(0,46)" stroke-width="2" id="shape231" d="M0,0C0,-19,23,-19,23,0"/></g><g transform="matrix(0,1,-1,0,689.3,713)"><path fill="none" stroke="#000000" transform="matrix(0,-1,1,0,11,31.8)" stroke-width="2" id="shape232" d="M0,0L31.8,0"/><path fill="none" stroke="#000000" transform="translate(0,46)" stroke-width="2" id="shape233" d="M0,0C0,-19,23,-19,23,0"/></g><g transform="matrix(0,-1,1,0,589,846)" id="shape234"><path fill="none" stroke="#000000" stroke-dasharray="11,5" stroke-width="2" d="M12.4,0L392,0"/><path fill="#000000" stroke="#000000" stroke-linecap="round" stroke-width="1" d="M0,0L14.7,8.5C13.2,6,12.4,3.1,12.4,0C12.4,-3.1,13.2,-6,14.7,-8.5L0,0"/></g><path fill="none" stroke="#000000" transform="matrix(-1,0,0,-1,646,455)" stroke-dasharray="11,5" stroke-width="2" id="shape235" d="M0,0L56.5,0"/><path fill="none" stroke="#000000" transform="matrix(-1,0,0,-1,646,522)" stroke-dasharray="11,5" stroke-width="2" id="shape236" d="M0,0L56.5,0"/><path fill="none" stroke="#000000" transform="matrix(-1,0,0,-1,646,589)" stroke-dasharray="11,5" stroke-width="2" id="shape237" d="M0,0L56.5,0"/><path fill="none" stroke="#000000" transform="matrix(-1,0,0,-1,646,657)" stroke-dasharray="11,5" stroke-width="2" id="shape238" d="M0,0L56.5,0"/><path fill="none" stroke="#000000" transform="matrix(-1,0,0,-1,646,724)" stroke-dasharray="11,5" stroke-width="2" id="shape239" d="M0,0L56.5,0"/><g transform="matrix(-0,1,-1,-0,826,1701)" id="shape240"><path fill="none" stroke="#000000" stroke-dasharray="11,5" stroke-width="2" d="M0,0L95.6,0"/><path fill="#000000" stroke="#000000" stroke-linecap="round" stroke-width="1" d="M108,0L93.3,-8.5C94.8,-6,95.6,-3.1,95.6,0C95.6,3.1,94.8,6,93.3,8.5L108,0"/></g><g transform="translate(605,846)" id="shape241"><text class="st1"><tspan x="7" y="16.8">Invio Dati</tspan></text></g><g transform="translate(907.88,965.46)" id="shape242"><text class="st1"><tspan x="7" y="6.8">Ricezione </tspan><tspan x="24" y="26.8">Dati</tspan></text></g></g></svg>